<?xml version="1.0" encoding="utf-8"?>
<!-- Generator: Adobe Illustrator 16.0.0, SVG Export Plug-In . SVG Version: 6.00 Build 0)  -->
<!DOCTYPE svg PUBLIC "-//W3C//DTD SVG 1.1//EN" "http://www.w3.org/Graphics/SVG/1.1/DTD/svg11.dtd">
<svg version="1.1" id="Calque_3" xmlns="http://www.w3.org/2000/svg" xmlns:xlink="http://www.w3.org/1999/xlink" x="0px" y="0px"
	 width="150px" height="150.096px" viewBox="0 0 150 150.096" enable-background="new 0 0 150 150.096" xml:space="preserve">
<g>
	<g>
		<radialGradient id="SVGID_1_" cx="75.4087" cy="74.9929" r="74.7485" gradientUnits="userSpaceOnUse">
			<stop  offset="0.33" style="stop-color:#F4C31E"/>
			<stop  offset="1" style="stop-color:#00BDCC"/>
		</radialGradient>
		
			<path fill="none" stroke="url(#SVGID_1_)" stroke-width="0.25" stroke-linecap="round" stroke-linejoin="round" stroke-miterlimit="10" d="
			M134.728,104.275L119.53,97.48l-7.329-3.936l31.115,12.004l-23.543-8.553L134.728,104.275l-22.527-10.73l7.572,3.451l1.676-3.801
			l21.867,12.354L119.53,97.48l-8.839-1.178l-3.611-12.543l-0.113,0.404l-0.331,1.08l-1.8,4.434l30.526,29.547l2.003-2.869
			l-34.664-22.967l-1.33,1.859l19.752,15.24L94.774,90.185l0.116-0.156l0.222-0.295l22.106,11.832L97.382,85.988l1.245-3.018
			l0.36-1.156l23.63,8.061l15.869,4.99l-0.477,1.461l-0.52,1.477l-16.042-4.607l-6.34-7.268l22.382,11.875l5.825,7.746
			L134.728,104.275l-24.037-7.973l19.63,15.627l-1.667,2.381l-2.909,3.686l7.468,4.018l-4.559-7.703l-17.963-18.008l32.625,9.246
			l-28.207-19.621l24.131,6.354l-16.27-3.582l-7.861-2.771l22.901,10.398l-15.04-7.627l8.343,1.025l-1.078,3.629l-7.896-2.609
			l5.22,9.256l-4.058,7.166l13.864,9.189l-20.784-13.803l6.92,4.613l-20.8-13.777l13.88,9.164l-2.049,2.865L94.774,90.185
			l6.597,5.062l13.161,10.17l6.591,5.07l-13.156-10.176l-1.112,1.385l6.381,5.334l16.33,6.006L95.708,88.882l0.997-1.613
			l41.392,8.797l1.984-7.283l-0.344,1.525l-0.498,1.973l9.892-6.977l0.402-3.5l0.22-10.553l0.093,3.521l-0.073,3.519l-1.21,10.488
			l-25.408-0.744l-24.167-6.221l39.499,13.051l-10.73,20.639l-13.225-10.086l-6.565-5.105L94.774,90.185l32.982,25.318
			l-26.386-20.256l6.596,5.064l19.79,15.191l-6.634-5.016l8.626,15.516l-9.922,8.904l-11.168-23.1l19.874,15.469l-8.706,7.631
			l-14.28,8.389l-11.62,4.088l-28.396-40.51l-4.596,15.982l-1.124-0.342l-12.562,21.979l16.975,4.549l3.973-41.496l-1.066-0.24
			l-31.351-1.449L55.2,90.185l-4.152,7.898l-15.268,7.773l-1.259-1.67l20.217-14.623l-6.725,4.895l-0.366-0.518l7.553-3.756
			l11.931,17.121l1.066,0.24l4.446,0.615l20.066-5.029l19.126,36.99l-23.415-34.707l4.289-2.283l-15.294,5.023l-4.772,0.006
			l-8.419,40.881l28.485-45.91l4.784-3.652l-7.288-4.725l13.321,21.154l-0.971,0.662L88.134,96.187l12.768,21.434l-2.379,1.355
			L86.186,97.277l10.24,22.758L84.634,97.991l-7.603,1.854L73.737,99.9l-4.07-0.543l-2.487,24.904l0.41,0.062L73.737,99.9
			l-6.016,49.566l-0.131-25.143l-0.63-0.1l2.016,0.289l0.868,0.096l6.674,25.193l3.006-25.135l-9.68-0.059l-12.553,23.09
			l22.232-23.031l-19.714-2.152l-2.519,25.184l-6.74-1.977l28.973-21.055l-27.733,12.666l8.019-14.818l-9.259,23.207l1.24-8.389
			l-4.542,7.16l32.275-19.826l-31.378-7.621l13.27-21.125l-1.766-1.258l-3.414-3.217l-20.319,14.582l19.206-15.945l2.464,2.783
			l2.765,2.324l-13.096,21.273l-3.709-2.732l1.699,1.318l0.493,0.361l0.409,0.293l-2.902,17.748l1.385,0.729L71.16,99.638
			l3.448,41.865l-1.021-0.014l4.326-0.051l-0.12-24.973l-4.206,25.023l-0.371-0.01l-3.127-0.154l3.127,0.154l4.577-25.014
			l4.802,24.602l-8.756-7.889l-8.576-0.807l3.72,0.506l-1.989-8.646l-1.322,8.209l3.311,0.438l2.029,0.176l0.595-8.293l25.274-14.43
			l19.914,16.398l-15.013-19.953l16.219,18.957l3.475-3.158l0.164-0.164l-1.792,1.699L91.613,93.585l-3.835,2.818l12.789,21.418
			l-4.245,20.17l-1.489,0.482l2.966-1.002l10.93,4.312l-9.673-23.098l5.435-3.465l4.908,6.713l-4.087,2.736l-4.552,2.502
			l0.013-0.006l4.539-2.496l4.087-2.736l4.262-3.441l-5.511-6.227l-3.659,2.955l9.17,3.271l-12.9,8.68l-3.69-7.451l3.703,7.445
			l8.803,4.643l-0.847,9.975l-11.847-31.453l2.174,8.355l10.52,13.123l-12.693-21.479l0.917,27.141l-9.023,2.586l-1.536,0.309
			l-1.543,0.27l2.47,8.012l-2.873,0.457l-5.769-24.438L61.416,95.921l-36.494,34.703l-3.841-16.637l6.688-4.945l13.507-9.707
			l-6.755,4.852l-13.441,9.801l26.933-19.529l-6.737,4.877L21.08,113.988l33.658-24.424L12.344,115.96l3.486,4.889l6.905-4.674
			l3.298,3.867l9.945-13.938l1.398,1.676l7.266-4.363l-21.907,12.758l13.244-10.07l8.664-2.688l-15.309,19.965l10.568-12.914
			l4.741-7.051l-18.609,16.625l11.343-12.262l-0.655-0.766l-5.606,6.238l1.303,1.445l0.661,0.693l5.428-6.359l-6.088,5.666
			l0.661,0.693l5.246,4.814l0.797,0.633l5.127-6.549l-0.289-0.227l-5.155,6.525l7.213,4.885l-5.488,6.42l5.502,2.984l1.417,0.666
			l1.435,0.629l21.736-19.844l-0.53,24.996l-1.113-16.812l1.644-8.184l-3.66,7.895l3.129,17.102l-9.338,7.129l9.868-32.125
			l-12.863,22.906l9.204-15.012l-6.208,24.23l-2.995-9.219l-8.873-3.062l7.346,2.635l4.705-15.951l6.197-15.551L32.862,126.48
			l18.186-28.396l16.083,9.223l-10.901,31.502l9.301-31.934l1.601,0.432l-10.692-4.707l-12.968,11.07l23.66-6.363l-13.178-6.551
			L43.47,113.669L32.862,126.48l21.091-25.725l-2.957,8.191l-18.003,17.641l10.554-12.855l7.45-4.785l-5.75,6.104l-4.717,16.844
			l10.467-22.947l-19.334,16.529l-2.33-2.094l2.33,2.094l1.331,1.111l-5.37-35.881L8.154,108.704l1.454,2.738l0.876,1.527
			l-0.876-1.527l18.015-20.736l-25.96-0.641l-0.628-3.463l7.993-2.84l33.08-3.693l-8.343,0.418L1.035,86.603l16.396-2.826
			l24.677-3.707l-16.446,2.504L1.035,86.603l49.292-7.811l-8.219,1.277L1.035,86.603l49.091-9.492L8.574,79.089l25.19,1.398
			l16.562-1.695l-24.665,3.781l-8.231,1.203l32.896-4.984L9.027,83.763l16.634-1.189l8.103-2.086L17.43,83.777l-8.403-0.014
			l24.737-3.275l16.361-3.377l-8.018,2.959l1.066,4.652L43,84.136L3.399,96.872l39.774-12.15L29.487,95.486l15.801-5.506
			l5.772-7.912l0.435,1.334l-23.081,9.514l23.504-8.418l0.802,1.75l-0.07-0.141L30.306,97.212l22.067-11.68l-15.212,6.736
			l15.121-6.934l-0.109-0.244l-25.542,2.236l-0.278-1.141L9.514,86.855l-0.487-3.092l41.098-6.652L17.43,83.777l1.057,5.266
			l0.517,1.938l8.003-2.268l-7.698,3.303L21.9,98.89l0.14,0.314l7.567-3.455l-6.123,6.389l4.284,6.904l6.752-4.855l13.492-9.729
			l-20.244,14.584l26.969-19.479l-13.462,9.771l3.366,4.082L15.83,120.849l4.347-8.143l-1.714-2.619l-5.086-9.969l15.971-4.947
			l-15.116,6.949l0.501,1.092l22.573-10.633l-0.382-0.842l-23.771,7.824l21.81-13.285l-8.608-0.09l-15.435,6.766l24.043-6.676
			L9.514,86.855l-1.02-9.33l24.907-2.907l-8.055-4.76L0.971,63.799l1.379-6.905l25.561,1.534L7.78,42.034l2.493-4.657l14.193-5.675
			l18.949,16.228l12.631,10.823l-31.58-27.05l12.646,10.804l6.303,5.423l2.871-3.026L26.848,29.068l17.71-3.701l7.289-3.787
			l1.173,8.614L37.376,10.289l-5.916,3.82l14.836-8.237l13.896,21.472l-0.365,0.113l-4.173-7.369l-1.256,0.458l2.931,7.782
			l-5.482-6.748l2.551-1.034l1.256-0.458l1.675,8.241l-1.093,0.429L50.089,4.418l8.823,6.023l3.056-0.686L50.089,4.418
			l20.288,12.549l2.748-0.154l3.293-0.012l3.084,0.159l-3.772,8.144L74.41,8.472l11.7,44.185l12.781-21.466l-8.937,23.836
			l15.004-19.933L90.74,55.64l5.41,6.128l0.677,1.15l0.042,0.076l0.327,0.617l1.137,2.563l23.353-8.793l-23.109,9.467l0.698,2.409
			l24.287-5.727l-24.073,6.725l-0.214-0.998l24.712-3.742l16.332-3.166l-22.63-13.188l12.551-11.248l-12.926,10.639l-6.983,4.519
			l19.909-15.158l-5.769-7.403l-13.166,10.255l16.935-18.378l-27.823,31.149L124.47,30.51l3.769-8.123L96.973,50.022l2.517-8.629
			l-5.629,6.203l-0.946-10.124l-3.674,7.461l-3.763-1.51l-1.747-0.526l-1.315-8.816l-3.032,7.939l-6.334-0.234L63.48,52.854
			l-9.436-23.147l10.489,22.631l-8.599-23.458l5.86-2.005l-1.128,0.324l-2.232,0.726L50.089,4.418l8.819,6.023l0.222,26.114
			l1.536-9.358l-21.779-8.084l19.547,8.81l0.697,8.632L50.089,4.418L38.886,19.114l17.35,9.643l2.894,7.799l2.838-26.8l3.084-0.54
			L50.089,4.418l10.577,22.78l-1.758-16.756l0.004,0l0.218,26.115l3.095,7.718l-9.205-14.08l3.264,17.288l-6.641-15.469
			L37.376,10.289l18.908,37.193L28.643,16.224l9.44,25.183l7.827,17.417l-13.464-9.918l3.358-4.812l10.106,14.73L5.417,47.367
			l14.21,9.598l4.353-10.038l3.039-4.924l6.863,4.696l-6.417-5.335l9.646,1.142l18.934,16.246l-4.395,7.404l1.199-2.678l1.75-2.872
			l0.483-0.659l-0.019,0.023l-20.67-14l20.05,14.86l-0.088,0.128L33.074,47.912l20.82,13.75l-25.518-4.499l7.74,3.044l-32.834-6.71
			l7.536,3.893l25.298,2.817L13.33,49.981l23.899,7.583L17.216,41.986l-3.634-9.794l32.704,12.712l1.446-1.315L26.848,29.068
			l11.677,11.86l-0.442,0.479l-2.279,2.687l-0.715,0.93l7.861,3.457l0.634-0.745L26.848,29.068l-13.267,3.124l24.944,8.736
			l5.058,6.808L13.582,32.192L42.95,48.481l-25.734-6.495l17.873,3.038L13.582,32.192l25.365,22.055L17.216,41.986l-3.634-9.794
			l34.15,11.397l4.095-3.13l-12.94-21.344L59.13,36.556l5.922-27.34l7.524-9.021l1.833,8.278l-0.612,16.641L72.576,0.194
			l3.153,24.909l1.897,8.395l4.599-24.634l7.139,1.176l-7.946,40.845L97.876,3.737l-6.415,6.802l1.513,0.405l2.644,0.801
			l-0.631-0.201l-7.123,23.911l2.112-8.054l2.513-7.926l2.498-7.931L89.976,27.4l-2.557-0.73l-9.344-1.476L77.11,0.184
			l-0.908,24.929l-4.357,0.085l-6.29-24.446l4.312,24.611l1.978-0.165l0.362-0.021l3.738,24.885L85.33,9.277l-5.309,41.279
			l-5.467-0.509l6.378-24.592l-2.923,24.772l2.137,0.355l5.472-24.339l2.124,0.513l4.747-7.28l-4.625,15.98l14.572,8.297
			l6.362-5.461l-0.29-0.266l-6.072,5.727l11.214-12.287l-1.682-1.437l-9.624,3.231l9.124-13.906l-4.591,6.935l-4.533,6.971
			l-2.64-10.972l7.173,4.001l-1.155-0.737l-4.397,7.059l-0.679-0.415L87.819,53.592l0.334,0.204l-1.005-0.591l13.498-21.01
			L88.153,53.796l2.858,2.068l21.862-13.353l-4.103-4.246l-17.76,17.599l17.266-18.048l0.494,0.449l4.857,5.147l0.021-11.948
			l1.619-9.426l-8.59,14.408l5.289-6.418l3.301-7.99l-3.801-2.685l-11.764,2.934l13.292-11.772L101.325,32.61l-1.62-10.323
			l6.018,3.264l7.274-15.036l8.697,5.988L97.231,30.326l9.537-23.095l-3.225-1.42l-1.733,8.3l8.11-5.312l8.97,5.572l2.318,12.76
			l13.904,3.27l1.033,1.427l-3.43,10.073L113.62,59.59l1.782,5.586l30.652-13.711l-3.657-9.027l-24.9,6.409l20.612-14.095
			l-20.857,13.703l0.245,0.392l0.191,0.315l-7.358,3.91l-6.371,5.561l35.979-20.857l-36.652,19.72l0.673,1.138l1.32,2.597
			l37.879-17.167l5.58,18.087l-8.141,1.742l-0.595-3.074l7.945-2.582l-9.564-3.464l-24.764,4.82l23.741-7.779l1.022,2.959
			l-8.979-0.49l2.941,10.698l-8.196,1.423l5.255-12.121l-8.506,1.145l7.648-3.27l-9.69-0.958l7.306-3.974"/>
	</g>
	<circle fill="#FFFFFF" cx="149.495" cy="67.739" r="0.599"/>
	<path fill="#FFFFFF" d="M150.35,71.178c0.04,0.331-0.198,0.628-0.522,0.669c-0.328,0.037-0.631-0.195-0.671-0.525
		c-0.04-0.328,0.198-0.628,0.526-0.667C150.007,70.615,150.31,70.85,150.35,71.178z"/>
	<path fill="#FFFFFF" d="M150.442,74.7c0.037,0.328-0.195,0.627-0.526,0.667c-0.325,0.04-0.624-0.194-0.663-0.522
		c-0.04-0.331,0.194-0.628,0.519-0.668C150.103,74.135,150.402,74.37,150.442,74.7z"/>
	<path fill="#FFFFFF" d="M150.367,78.217c0.041,0.326-0.19,0.636-0.522,0.675c-0.324,0.04-0.627-0.206-0.667-0.529
		c-0.037-0.333,0.195-0.631,0.523-0.67C150.029,77.653,150.328,77.887,150.367,78.217z"/>
	<circle fill="#FFFFFF" cx="149.534" cy="81.806" r="0.599"/>
	<path fill="#FFFFFF" d="M149.727,85.232c0.041,0.328-0.194,0.628-0.522,0.668c-0.332,0.039-0.631-0.195-0.671-0.523
		c-0.036-0.328,0.194-0.628,0.526-0.668C149.388,84.669,149.687,84.904,149.727,85.232z"/>
	<path fill="#FFFFFF" d="M149.158,88.703c0.039,0.333-0.195,0.631-0.523,0.67c-0.328,0.038-0.627-0.194-0.666-0.524
		c-0.041-0.326,0.194-0.624,0.522-0.663C148.822,88.143,149.118,88.38,149.158,88.703z"/>
	<path fill="#FFFFFF" d="M140.677,88.712c0.039,0.328-0.198,0.626-0.523,0.666c-0.328,0.039-0.63-0.195-0.67-0.523
		c-0.037-0.33,0.198-0.63,0.526-0.67C140.334,88.148,140.637,88.379,140.677,88.712z"/>
	<circle fill="#FFFFFF" cx="148.204" cy="90.573" r="0.599"/>
	<path fill="#FFFFFF" d="M140.333,90.235c0.039,0.328-0.195,0.626-0.526,0.666c-0.325,0.042-0.624-0.194-0.663-0.522
		c-0.041-0.328,0.194-0.624,0.519-0.663C139.995,89.675,140.293,89.906,140.333,90.235z"/>
	<path fill="#FFFFFF" d="M131.91,89.654c0.037,0.323-0.194,0.623-0.526,0.663c-0.328,0.04-0.627-0.194-0.667-0.521
		c-0.039-0.33,0.198-0.63,0.523-0.665C131.571,89.089,131.87,89.321,131.91,89.654z"/>
	<path fill="#FFFFFF" d="M139.835,92.207c0.039,0.328-0.195,0.626-0.523,0.666s-0.63-0.194-0.67-0.522
		c-0.037-0.323,0.198-0.624,0.526-0.663C139.497,91.648,139.795,91.882,139.835,92.207z"/>
	<path fill="#FFFFFF" d="M123.75,87.959c0.041,0.333-0.194,0.63-0.522,0.67s-0.627-0.194-0.667-0.522
		c-0.039-0.328,0.195-0.626,0.523-0.666C123.412,87.399,123.71,87.636,123.75,87.959z"/>
	<circle fill="#FFFFFF" cx="115.109" cy="85.928" r="0.597"/>
	<path fill="#FFFFFF" d="M107.673,83.691c0.041,0.328-0.19,0.626-0.519,0.666c-0.332,0.04-0.631-0.194-0.671-0.522
		c-0.037-0.331,0.195-0.638,0.523-0.678C107.335,83.121,107.637,83.359,107.673,83.691z"/>
	<circle fill="#FFFFFF" cx="98.987" cy="81.813" r="0.599"/>
	<path fill="#FFFFFF" d="M123.566,88.628c0.037,0.323-0.197,0.623-0.526,0.663c-0.328,0.04-0.627-0.194-0.663-0.521
		c-0.04-0.328,0.19-0.625,0.519-0.665C123.223,88.064,123.526,88.3,123.566,88.628z"/>
	<path fill="#FFFFFF" d="M107.563,84.096c0.04,0.328-0.198,0.625-0.526,0.665c-0.324,0.038-0.627-0.194-0.667-0.524
		c-0.037-0.326,0.198-0.636,0.522-0.676C107.22,83.526,107.523,83.765,107.563,84.096z"/>
	<circle fill="#FFFFFF" cx="122.618" cy="89.875" r="0.599"/>
	<circle fill="#FFFFFF" cx="138.487" cy="94.868" r="0.599"/>
	<path fill="#FFFFFF" d="M107.228,85.17c0.041,0.331-0.194,0.631-0.519,0.666c-0.332,0.04-0.631-0.189-0.667-0.522
		c-0.041-0.328,0.194-0.624,0.522-0.663C106.893,84.611,107.188,84.842,107.228,85.17z"/>
	<path fill="#FFFFFF" d="M130.828,93.281c0.041,0.328-0.194,0.628-0.519,0.668c-0.332,0.039-0.631-0.195-0.667-0.523
		c-0.041-0.328,0.19-0.628,0.522-0.668C130.493,92.718,130.788,92.952,130.828,93.281z"/>
	<path fill="#FFFFFF" d="M122.934,90.668c0.04,0.328-0.194,0.631-0.522,0.668c-0.328,0.04-0.631-0.194-0.671-0.522
		c-0.037-0.326,0.198-0.623,0.526-0.663C122.595,90.109,122.894,90.345,122.934,90.668z"/>
	<circle fill="#FFFFFF" cx="138.098" cy="96.067" r="0.599"/>
	<path fill="#FFFFFF" d="M99.22,82.898c0.041,0.328-0.194,0.623-0.519,0.663c-0.332,0.042-0.631-0.189-0.667-0.518
		c-0.041-0.328,0.19-0.629,0.522-0.668C98.885,82.335,99.18,82.57,99.22,82.898z"/>
	<path fill="#FFFFFF" d="M138.603,96.253c0.041,0.328-0.194,0.626-0.522,0.665c-0.328,0.038-0.627-0.194-0.663-0.522
		c-0.041-0.328,0.19-0.626,0.519-0.665C138.268,95.688,138.567,95.925,138.603,96.253z"/>
	<path fill="#FFFFFF" d="M138.085,97.727c0.039,0.333-0.195,0.631-0.523,0.67c-0.328,0.038-0.627-0.194-0.666-0.524
		c-0.04-0.326,0.194-0.624,0.522-0.663C137.747,97.166,138.045,97.404,138.085,97.727z"/>
	<path fill="#FFFFFF" d="M122.042,93.121c0.04,0.328-0.194,0.628-0.519,0.668c-0.332,0.04-0.631-0.194-0.671-0.522
		c-0.039-0.326,0.195-0.623,0.526-0.663C121.705,92.562,122.003,92.798,122.042,93.121z"/>
	<path fill="#FFFFFF" d="M143.912,105.476c0.039,0.328-0.195,0.628-0.523,0.668c-0.328,0.039-0.627-0.195-0.666-0.523
		c-0.04-0.332,0.194-0.63,0.519-0.668C143.573,104.913,143.872,105.148,143.912,105.476z"/>
	<path fill="#FFFFFF" d="M128.152,99.924c0.041,0.333-0.194,0.631-0.522,0.67c-0.328,0.038-0.627-0.194-0.667-0.524
		c-0.039-0.326,0.195-0.624,0.523-0.663C127.814,99.364,128.113,99.601,128.152,99.924z"/>
	<circle fill="#FFFFFF" cx="134.729" cy="104.274" r="0.599"/>
	<circle fill="#FFFFFF" cx="97.381" cy="85.988" r="0.599"/>
	<path fill="#FFFFFF" d="M120.37,96.923c0.036,0.33-0.198,0.63-0.526,0.665c-0.324,0.04-0.627-0.189-0.667-0.522
		c-0.04-0.328,0.194-0.626,0.522-0.666C120.027,96.361,120.33,96.595,120.37,96.923z"/>
	<circle fill="#FFFFFF" cx="104.834" cy="89.678" r="0.599"/>
	<path fill="#FFFFFF" d="M112.797,93.476c0.041,0.328-0.194,0.626-0.522,0.666s-0.631-0.194-0.671-0.522
		c-0.04-0.326,0.194-0.638,0.526-0.673C112.458,92.906,112.757,93.151,112.797,93.476z"/>
	<path fill="#FFFFFF" d="M120.125,97.405c0.041,0.328-0.194,0.633-0.522,0.673c-0.328,0.039-0.627-0.202-0.667-0.53
		c-0.039-0.323,0.195-0.626,0.523-0.663C119.787,96.844,120.088,97.076,120.125,97.405z"/>
	<circle fill="#FFFFFF" cx="96.706" cy="87.27" r="0.599"/>
	<circle fill="#FFFFFF" cx="110.692" cy="96.302" r="0.599"/>
	<path fill="#FFFFFF" d="M117.812,101.495c0.041,0.328-0.194,0.628-0.519,0.668c-0.332,0.039-0.631-0.195-0.671-0.523
		c-0.039-0.328,0.195-0.63,0.526-0.67C117.474,100.933,117.773,101.164,117.812,101.495z"/>
	<path fill="#FFFFFF" d="M117.173,102.482c0.041,0.328-0.194,0.628-0.522,0.668s-0.627-0.194-0.663-0.522
		c-0.041-0.333,0.19-0.631,0.519-0.671C116.838,101.916,117.133,102.151,117.173,102.482z"/>
	<path fill="#FFFFFF" d="M137.96,116.284c0.039,0.326-0.195,0.623-0.526,0.663c-0.325,0.04-0.624-0.194-0.663-0.522
		c-0.041-0.328,0.194-0.626,0.519-0.666C137.622,115.717,137.92,115.954,137.96,116.284z"/>
	<path fill="#FFFFFF" d="M124.097,107.092c0.037,0.328-0.198,0.626-0.526,0.666s-0.627-0.194-0.667-0.522
		c-0.039-0.323,0.195-0.624,0.526-0.663C123.755,106.532,124.057,106.767,124.097,107.092z"/>
	<circle fill="#FFFFFF" cx="102.7" cy="93.388" r="0.599"/>
	<circle fill="#FFFFFF" cx="130.321" cy="111.931" r="0.599"/>
	<circle fill="#FFFFFF" cx="95.709" cy="88.883" r="0.599"/>
	<path fill="#FFFFFF" d="M130.161,112.966c0.04,0.323-0.194,0.623-0.522,0.663s-0.631-0.194-0.671-0.521
		c-0.037-0.328,0.198-0.625,0.526-0.665C129.822,112.402,130.121,112.638,130.161,112.966z"/>
	<path fill="#FFFFFF" d="M95.707,89.663c0.04,0.328-0.194,0.628-0.522,0.668s-0.627-0.194-0.667-0.522
		c-0.039-0.331,0.195-0.636,0.523-0.675C95.369,89.094,95.667,89.335,95.707,89.663z"/>
	<path fill="#FFFFFF" d="M135.957,119.149c0.039,0.331-0.191,0.631-0.523,0.671c-0.328,0.039-0.63-0.195-0.666-0.523
		c-0.041-0.328,0.194-0.628,0.522-0.668C135.621,118.589,135.919,118.823,135.957,119.149z"/>
	<circle fill="#FFFFFF" cx="128.653" cy="114.308" r="0.599"/>
	<path fill="#FFFFFF" d="M95.486,89.956c0.039,0.328-0.195,0.628-0.523,0.668c-0.328,0.039-0.627-0.195-0.666-0.521
		c-0.041-0.331,0.194-0.631,0.522-0.671C95.147,89.394,95.446,89.628,95.486,89.956z"/>
	<circle fill="#FFFFFF" cx="127.757" cy="115.503" r="0.599"/>
	<path fill="#FFFFFF" d="M108.563,100.24c0.036,0.328-0.198,0.628-0.526,0.668c-0.328,0.037-0.627-0.195-0.667-0.523
		s0.194-0.628,0.522-0.668C108.22,99.677,108.523,99.911,108.563,100.24z"/>
	<path fill="#FFFFFF" d="M101.964,95.179c0.041,0.328-0.194,0.624-0.519,0.663c-0.332,0.04-0.631-0.191-0.671-0.52
		c-0.039-0.331,0.195-0.631,0.526-0.671C101.626,94.615,101.925,94.846,101.964,95.179z"/>
	<path fill="#FFFFFF" d="M95.371,90.117c0.039,0.318-0.195,0.616-0.526,0.656c-0.328,0.04-0.627-0.194-0.663-0.511
		c-0.044-0.335,0.19-0.636,0.522-0.675C95.032,89.548,95.331,89.782,95.371,90.117z"/>
	<path fill="#FFFFFF" d="M115.126,105.345c0.039,0.328-0.195,0.625-0.52,0.665c-0.332,0.04-0.631-0.194-0.67-0.522
		c-0.04-0.328,0.194-0.626,0.525-0.666C114.788,104.782,115.086,105.017,115.126,105.345z"/>
	<path fill="#FFFFFF" d="M121.716,110.415c0.04,0.332-0.194,0.628-0.522,0.668c-0.328,0.039-0.627-0.192-0.667-0.523
		c-0.039-0.328,0.195-0.628,0.523-0.668C121.378,109.853,121.677,110.087,121.716,110.415z"/>
	<path fill="#FFFFFF" d="M133.809,121.94c0.037,0.328-0.194,0.628-0.522,0.668c-0.332,0.04-0.631-0.194-0.671-0.522
		s0.194-0.628,0.526-0.663C133.47,121.38,133.769,121.616,133.809,121.94z"/>
	<path fill="#FFFFFF" d="M113.831,106.958c0.041,0.328-0.194,0.628-0.522,0.668c-0.332,0.039-0.631-0.195-0.671-0.523
		c-0.04-0.332,0.194-0.628,0.526-0.668C113.492,106.396,113.791,106.627,113.831,106.958z"/>
	<path fill="#FFFFFF" d="M107.449,101.621c0.041,0.333-0.197,0.63-0.525,0.67s-0.627-0.194-0.664-0.522
		c-0.039-0.328,0.195-0.626,0.52-0.666C107.111,101.066,107.41,101.298,107.449,101.621z"/>
	<circle fill="#FFFFFF" cx="125.745" cy="117.994" r="0.601"/>
	<path fill="#FFFFFF" d="M130.345,125.93c0.04,0.328-0.198,0.628-0.526,0.668s-0.627-0.194-0.667-0.522s0.194-0.623,0.522-0.663
		C130.002,125.37,130.305,125.602,130.345,125.93z"/>
	<circle fill="#FFFFFF" cx="128.532" cy="127.278" r="0.599"/>
	<circle fill="#FFFFFF" cx="121.641" cy="122.411" r="0.601"/>
	<path fill="#FFFFFF" d="M122.07,122.505c0.041,0.326-0.194,0.623-0.522,0.663s-0.627-0.194-0.667-0.518
		c-0.039-0.333,0.195-0.631,0.523-0.671C121.732,121.943,122.031,122.175,122.07,122.505z"/>
	<path fill="#FFFFFF" d="M115.267,117.496c0.041,0.328-0.19,0.628-0.522,0.668c-0.328,0.04-0.627-0.194-0.667-0.522
		c-0.037-0.328,0.195-0.623,0.523-0.663C114.932,116.937,115.228,117.168,115.267,117.496z"/>
	<path fill="#FFFFFF" d="M98.085,99.407c0.041,0.33-0.19,0.63-0.522,0.67c-0.328,0.037-0.623-0.194-0.663-0.527
		c-0.041-0.328,0.19-0.626,0.519-0.666C97.75,98.845,98.049,99.079,98.085,99.407z"/>
	<circle fill="#FFFFFF" cx="108.659" cy="111.808" r="0.599"/>
	<circle fill="#FFFFFF" cx="119.848" cy="124.11" r="0.599"/>
	<path fill="#FFFFFF" d="M92.208,93.51c0.039,0.34-0.195,0.631-0.523,0.671c-0.328,0.037-0.627-0.188-0.666-0.525
		c-0.041-0.328,0.194-0.628,0.522-0.668S92.168,93.182,92.208,93.51z"/>
	<path fill="#FFFFFF" d="M108.744,112.194c0.039,0.328-0.195,0.629-0.523,0.668c-0.328,0.04-0.627-0.194-0.666-0.522
		c-0.041-0.328,0.194-0.628,0.525-0.668C108.405,111.634,108.704,111.865,108.744,112.194z"/>
	<path fill="#FFFFFF" d="M114.256,118.421c0.036,0.328-0.194,0.628-0.522,0.668c-0.328,0.039-0.631-0.195-0.671-0.521
		c-0.04-0.331,0.198-0.631,0.526-0.671C113.917,117.859,114.216,118.093,114.256,118.421z"/>
	<path fill="#FFFFFF" d="M118.598,125.66c0.036,0.328-0.194,0.626-0.526,0.666c-0.324,0.04-0.627-0.194-0.667-0.522
		c-0.041-0.323,0.198-0.626,0.522-0.663C118.259,125.101,118.558,125.332,118.598,125.66z"/>
	<path fill="#FFFFFF" d="M102.378,106.701c0.039,0.333-0.195,0.63-0.523,0.67s-0.63-0.194-0.666-0.524
		c-0.041-0.328,0.194-0.624,0.522-0.664C102.04,106.141,102.338,106.373,102.378,106.701z"/>
	<path fill="#FFFFFF" d="M117.391,126.656c0.04,0.328-0.194,0.628-0.522,0.668c-0.332,0.04-0.631-0.194-0.671-0.522
		c-0.036-0.328,0.194-0.628,0.526-0.663C117.052,126.097,117.351,126.328,117.391,126.656z"/>
	<path fill="#FFFFFF" d="M90.798,94.685c0.041,0.326-0.194,0.623-0.522,0.663s-0.627-0.194-0.667-0.522
		c-0.039-0.328,0.195-0.626,0.523-0.666C90.46,94.117,90.759,94.355,90.798,94.685z"/>
	<path fill="#FFFFFF" d="M120.423,134.837c0.04,0.331-0.194,0.629-0.522,0.666c-0.328,0.04-0.631-0.189-0.671-0.522
		c-0.04-0.328,0.198-0.633,0.522-0.673C120.084,134.268,120.383,134.509,120.423,134.837z"/>
	<path fill="#FFFFFF" d="M105.083,115.152c0.041,0.323-0.19,0.623-0.522,0.663c-0.328,0.04-0.627-0.194-0.667-0.521
		c-0.039-0.328,0.195-0.625,0.523-0.665C104.749,114.587,105.044,114.823,105.083,115.152z"/>
	<path fill="#FFFFFF" d="M109.992,121.866c0.041,0.323-0.194,0.624-0.522,0.663c-0.328,0.04-0.627-0.194-0.667-0.52
		c-0.039-0.331,0.195-0.631,0.523-0.671C109.654,121.302,109.953,121.533,109.992,121.866z"/>
	<path fill="#FFFFFF" d="M104.122,115.836c0.037,0.328-0.195,0.629-0.523,0.668c-0.328,0.04-0.627-0.194-0.666-0.522
		c-0.04-0.333,0.194-0.628,0.522-0.668C103.783,115.277,104.082,115.506,104.122,115.836z"/>
	<path fill="#FFFFFF" d="M103.15,116.499c0.039,0.325-0.195,0.623-0.523,0.663s-0.627-0.189-0.666-0.518
		c-0.041-0.328,0.194-0.629,0.525-0.668C102.811,115.937,103.11,116.171,103.15,116.499z"/>
	<path fill="#FFFFFF" d="M93.302,103.057c0.041,0.333-0.194,0.63-0.522,0.67s-0.627-0.194-0.667-0.522
		c-0.039-0.328,0.195-0.626,0.523-0.666C92.964,102.496,93.263,102.734,93.302,103.057z"/>
	<path fill="#FFFFFF" d="M88.73,96.115c0.039,0.328-0.195,0.628-0.526,0.668c-0.325,0.039-0.624-0.195-0.663-0.523
		c-0.041-0.328,0.194-0.628,0.519-0.668C88.391,95.552,88.69,95.786,88.73,96.115z"/>
	<path fill="#FFFFFF" d="M97.476,110.256c0.039,0.333-0.195,0.631-0.523,0.668c-0.328,0.04-0.627-0.192-0.666-0.522
		c-0.04-0.326,0.194-0.623,0.525-0.663C97.137,109.697,97.436,109.933,97.476,110.256z"/>
	<circle fill="#FFFFFF" cx="105.311" cy="124.672" r="0.599"/>
	<circle fill="#FFFFFF" cx="109.575" cy="131.811" r="0.599"/>
	<path fill="#FFFFFF" d="M101.498,117.548c0.039,0.328-0.195,0.625-0.526,0.665c-0.325,0.04-0.624-0.194-0.663-0.522
		c-0.041-0.328,0.194-0.626,0.519-0.666C101.159,116.983,101.458,117.22,101.498,117.548z"/>
	<path fill="#FFFFFF" d="M88.373,96.331c0.039,0.328-0.195,0.628-0.523,0.668c-0.328,0.039-0.627-0.195-0.666-0.527
		c-0.041-0.324,0.194-0.624,0.522-0.664C88.034,95.769,88.333,96.003,88.373,96.331z"/>
	<circle fill="#FFFFFF" cx="100.567" cy="117.822" r="0.599"/>
	<circle fill="#FFFFFF" cx="111.834" cy="140.123" r="0.599"/>
	<path fill="#FFFFFF" d="M99.65,118.618c0.041,0.323-0.194,0.624-0.522,0.663c-0.328,0.04-0.63-0.194-0.667-0.52
		c-0.039-0.331,0.195-0.631,0.523-0.671C99.312,118.054,99.611,118.285,99.65,118.618z"/>
	<path fill="#FFFFFF" d="M99.12,118.904c0.036,0.328-0.198,0.628-0.526,0.668c-0.328,0.037-0.627-0.195-0.667-0.523
		s0.194-0.628,0.522-0.668C98.777,118.341,99.08,118.575,99.12,118.904z"/>
	<path fill="#FFFFFF" d="M109.322,141.714c0.04,0.328-0.194,0.628-0.522,0.668s-0.627-0.194-0.667-0.522
		c-0.039-0.333,0.195-0.631,0.523-0.671S109.283,141.383,109.322,141.714z"/>
	<path fill="#FFFFFF" d="M86.781,97.206c0.039,0.323-0.195,0.623-0.523,0.663s-0.627-0.194-0.666-0.521
		c-0.041-0.328,0.194-0.625,0.522-0.665C86.442,96.642,86.741,96.878,86.781,97.206z"/>
	<path fill="#FFFFFF" d="M101.367,127.092c0.041,0.333-0.194,0.631-0.522,0.67c-0.328,0.038-0.627-0.194-0.667-0.524
		c-0.039-0.326,0.195-0.624,0.523-0.663C101.029,126.534,101.328,126.769,101.367,127.092z"/>
	<path fill="#FFFFFF" d="M101.352,127.103c0.041,0.328-0.19,0.625-0.519,0.665c-0.332,0.04-0.627-0.194-0.667-0.522
		s0.19-0.626,0.519-0.666C101.017,126.537,101.312,126.775,101.352,127.103z"/>
	<path fill="#FFFFFF" d="M97.667,119.649c0.04,0.328-0.198,0.628-0.526,0.668s-0.627-0.194-0.667-0.522
		c-0.041-0.328,0.194-0.623,0.522-0.663C97.324,119.089,97.626,119.325,97.667,119.649z"/>
	<path fill="#FFFFFF" d="M97.02,119.962c0.04,0.33-0.19,0.63-0.519,0.67c-0.332,0.037-0.631-0.194-0.671-0.527
		c-0.037-0.328,0.195-0.626,0.526-0.666C96.685,119.4,96.981,119.634,97.02,119.962z"/>
	<path fill="#FFFFFF" d="M106.14,143.224c0.04,0.33-0.19,0.63-0.522,0.67c-0.324,0.037-0.627-0.194-0.667-0.527
		c-0.039-0.328,0.195-0.626,0.523-0.666C105.802,142.661,106.104,142.896,106.14,143.224z"/>
	<path fill="#FFFFFF" d="M89.013,105.343c0.041,0.32-0.194,0.625-0.522,0.665s-0.627-0.201-0.667-0.522
		c-0.039-0.328,0.195-0.626,0.523-0.666C88.675,104.778,88.974,105.015,89.013,105.343z"/>
	<path fill="#FFFFFF" d="M85.232,97.924c0.037,0.323-0.198,0.623-0.526,0.663s-0.627-0.194-0.667-0.521
		c-0.039-0.328,0.191-0.633,0.523-0.673C84.89,97.352,85.192,97.593,85.232,97.924z"/>
	<path fill="#FFFFFF" d="M98.395,137.402c0.04,0.325-0.194,0.623-0.522,0.663c-0.332,0.04-0.631-0.194-0.671-0.518
		c-0.04-0.328,0.194-0.629,0.526-0.668C98.056,136.839,98.355,137.073,98.395,137.402z"/>
	<path fill="#FFFFFF" d="M96.916,137.919c0.041,0.328-0.194,0.628-0.522,0.668c-0.328,0.039-0.627-0.195-0.667-0.523
		c-0.039-0.332,0.195-0.628,0.523-0.668C96.578,137.357,96.876,137.588,96.916,137.919z"/>
	<circle fill="#FFFFFF" cx="94.833" cy="138.475" r="0.599"/>
	<path fill="#FFFFFF" d="M94.523,147.319c0.037,0.316-0.194,0.616-0.526,0.656c-0.328,0.04-0.627-0.194-0.667-0.513
		c-0.037-0.328,0.198-0.633,0.522-0.673C94.184,146.747,94.483,146.989,94.523,147.319z"/>
	<circle fill="#FFFFFF" cx="88.774" cy="140.057" r="0.599"/>
	<path fill="#FFFFFF" d="M87.835,140.294c0.037,0.323-0.194,0.626-0.526,0.665c-0.324,0.038-0.627-0.194-0.667-0.522
		c-0.039-0.328,0.198-0.626,0.526-0.665C87.497,139.729,87.795,139.966,87.835,140.294z"/>
	<path fill="#FFFFFF" d="M88.761,148.579c0.039,0.328-0.195,0.623-0.526,0.663c-0.325,0.04-0.624-0.192-0.663-0.521
		c-0.04-0.33,0.194-0.63,0.519-0.665C88.422,148.012,88.721,148.246,88.761,148.579z"/>
	<path fill="#FFFFFF" d="M86.291,140.561c0.041,0.328-0.19,0.628-0.525,0.668c-0.325,0.04-0.624-0.194-0.664-0.522
		c-0.039-0.326,0.195-0.623,0.52-0.663C85.956,140.001,86.254,140.238,86.291,140.561z"/>
	<path fill="#FFFFFF" d="M85.886,149.031c0.041,0.328-0.194,0.629-0.522,0.668c-0.328,0.04-0.623-0.194-0.663-0.522
		c-0.041-0.333,0.194-0.628,0.519-0.668C85.547,148.472,85.846,148.701,85.886,149.031z"/>
	
		<ellipse transform="matrix(0.9926 -0.121 0.121 0.9926 -16.4669 11.034)" fill="#FFFFFF" cx="82.595" cy="141.068" rx="0.601" ry="0.595"/>
	<path fill="#FFFFFF" d="M80.122,124.59c0.04,0.332-0.194,0.635-0.526,0.675c-0.324,0.04-0.627-0.202-0.667-0.53
		c-0.037-0.325,0.194-0.623,0.522-0.663C79.783,124.031,80.082,124.266,80.122,124.59z"/>
	<path fill="#FFFFFF" d="M77.626,99.772c0.041,0.328-0.197,0.628-0.522,0.668c-0.324,0.04-0.627-0.194-0.667-0.522
		c-0.039-0.328,0.198-0.628,0.523-0.663C77.286,99.212,77.587,99.448,77.626,99.772z"/>
	<path fill="#FFFFFF" d="M78.008,108.08c0.04,0.328-0.194,0.638-0.519,0.677c-0.328,0.04-0.631-0.206-0.671-0.534
		c-0.036-0.328,0.195-0.626,0.526-0.665C77.67,107.518,77.969,107.752,78.008,108.08z"/>
	<circle fill="#FFFFFF" cx="77.793" cy="116.466" r="0.599"/>
	<path fill="#FFFFFF" d="M78.509,141.365c0.037,0.328-0.194,0.631-0.522,0.666c-0.328,0.042-0.631-0.189-0.671-0.522
		c-0.039-0.328,0.198-0.624,0.526-0.663C78.17,140.806,78.469,141.037,78.509,141.365z"/>
	<path fill="#FFFFFF" d="M77.114,149.724c0.04,0.331-0.194,0.636-0.52,0.676c-0.331,0.039-0.634-0.202-0.674-0.53
		s0.198-0.621,0.53-0.661C76.775,149.169,77.074,149.396,77.114,149.724z"/>
	<circle fill="#FFFFFF" cx="74.808" cy="133.189" r="0.6"/>
	<path fill="#FFFFFF" d="M75.201,141.433c0.04,0.328-0.194,0.625-0.52,0.665c-0.33,0.04-0.628-0.194-0.668-0.522
		c-0.039-0.328,0.194-0.626,0.524-0.666C74.863,140.872,75.161,141.105,75.201,141.433z"/>
	<path fill="#FFFFFF" d="M74.434,133.107c0.041,0.328-0.194,0.628-0.524,0.668c-0.328,0.037-0.627-0.195-0.667-0.523
		c-0.039-0.328,0.194-0.628,0.524-0.668C74.096,132.544,74.395,132.779,74.434,133.107z"/>
	<circle fill="#FFFFFF" cx="73.587" cy="141.487" r="0.6"/>
	<path fill="#FFFFFF" d="M73.811,141.409c0.04,0.328-0.194,0.625-0.524,0.665c-0.325,0.04-0.625-0.194-0.664-0.522
		c-0.041-0.33,0.195-0.626,0.519-0.666C73.473,140.849,73.771,141.076,73.811,141.409z"/>
	<path fill="#FFFFFF" d="M74.333,99.831c0.039,0.328-0.194,0.626-0.521,0.666c-0.332,0.04-0.631-0.194-0.67-0.522
		c-0.041-0.328,0.193-0.633,0.526-0.673C73.993,99.262,74.292,99.499,74.333,99.831z"/>
	<circle fill="#FFFFFF" cx="71.607" cy="124.762" r="0.598"/>
	<path fill="#FFFFFF" d="M71.605,132.982c0.041,0.332-0.191,0.628-0.522,0.668c-0.327,0.037-0.624-0.192-0.663-0.523
		c-0.041-0.328,0.192-0.628,0.519-0.668C71.27,132.419,71.566,132.654,71.605,132.982z"/>
	<path fill="#FFFFFF" d="M73.235,108.091c0.041,0.328-0.194,0.625-0.519,0.665c-0.329,0.04-0.628-0.194-0.667-0.522
		c-0.041-0.328,0.192-0.626,0.522-0.666C72.897,107.529,73.195,107.763,73.235,108.091z"/>
	<path fill="#FFFFFF" d="M70.683,141.257c0.041,0.328-0.195,0.626-0.521,0.666c-0.329,0.04-0.627-0.194-0.667-0.525
		c-0.04-0.328,0.193-0.635,0.523-0.675C70.343,140.688,70.643,140.925,70.683,141.257z"/>
	<path fill="#FFFFFF" d="M68.316,149.391c0.04,0.333-0.195,0.631-0.523,0.671c-0.326,0.037-0.625-0.197-0.665-0.525
		c-0.041-0.328,0.195-0.628,0.521-0.668C67.978,148.828,68.276,149.063,68.316,149.391z"/>
	<path fill="#FFFFFF" d="M70.44,124.536c0.041,0.328-0.194,0.628-0.524,0.668c-0.328,0.037-0.627-0.195-0.667-0.523
		c-0.041-0.328,0.194-0.628,0.524-0.668C70.102,123.974,70.4,124.208,70.44,124.536z"/>
	<circle fill="#FFFFFF" cx="68.983" cy="132.879" r="0.6"/>
	<path fill="#FFFFFF" d="M71.215,116.254c0.041,0.333-0.197,0.63-0.526,0.67c-0.326,0.04-0.625-0.194-0.665-0.522
		c-0.039-0.328,0.195-0.626,0.521-0.666C70.875,115.694,71.177,115.931,71.215,116.254z"/>
	<circle fill="#FFFFFF" cx="68.976" cy="124.513" r="0.598"/>
	<path fill="#FFFFFF" d="M64.821,148.972c0.041,0.325-0.198,0.623-0.528,0.663c-0.328,0.042-0.627-0.194-0.667-0.518
		c-0.041-0.328,0.194-0.631,0.524-0.668C64.479,148.409,64.781,148.641,64.821,148.972z"/>
	<path fill="#FFFFFF" d="M68.186,124.253c0.041,0.328-0.197,0.625-0.526,0.665c-0.327,0.04-0.625-0.194-0.663-0.522
		c-0.041-0.33,0.192-0.631,0.519-0.666C67.844,123.691,68.146,123.92,68.186,124.253z"/>
	<circle fill="#FFFFFF" cx="71.161" cy="99.638" r="0.599"/>
	<path fill="#FFFFFF" d="M67.776,124.191c0.039,0.323-0.196,0.623-0.524,0.663s-0.628-0.194-0.667-0.521
		c-0.041-0.328,0.194-0.625,0.522-0.665C67.438,123.626,67.736,123.863,67.776,124.191z"/>
	<circle fill="#FFFFFF" cx="65.672" cy="132.442" r="0.6"/>
	<path fill="#FFFFFF" d="M67.59,124.158c0.041,0.331-0.194,0.631-0.524,0.671c-0.325,0.04-0.627-0.194-0.667-0.522
		c-0.041-0.333,0.197-0.631,0.522-0.671C67.251,123.596,67.55,123.83,67.59,124.158z"/>
	<circle fill="#FFFFFF" cx="66.959" cy="124.225" r="0.601"/>
	<path fill="#FFFFFF" d="M65.858,132.302c0.041,0.323-0.194,0.623-0.524,0.663c-0.329,0.04-0.626-0.194-0.667-0.521
		c-0.041-0.328,0.194-0.625,0.524-0.665C65.52,131.738,65.819,131.974,65.858,132.302z"/>
	<path fill="#FFFFFF" d="M61.348,148.384c0.039,0.325-0.195,0.623-0.524,0.663c-0.33,0.04-0.629-0.194-0.667-0.518
		c-0.04-0.328,0.194-0.631,0.523-0.668C61.009,147.822,61.308,148.053,61.348,148.384z"/>
	<path fill="#FFFFFF" d="M68.794,107.478c0.039,0.323-0.197,0.624-0.524,0.663c-0.332,0.04-0.63-0.194-0.67-0.52
		c-0.041-0.328,0.195-0.631,0.526-0.671C68.452,106.913,68.753,107.145,68.794,107.478z"/>
	<path fill="#FFFFFF" d="M70.262,99.286c0.041,0.328-0.192,0.625-0.522,0.665c-0.328,0.04-0.627-0.194-0.667-0.522
		c-0.041-0.328,0.195-0.631,0.523-0.666C69.924,98.721,70.224,98.953,70.262,99.286z"/>
	<path fill="#FFFFFF" d="M67.724,107.236c0.039,0.323-0.194,0.623-0.521,0.663c-0.331,0.04-0.628-0.194-0.667-0.521
		c-0.04-0.328,0.194-0.625,0.523-0.665C67.386,106.671,67.684,106.907,67.724,107.236z"/>
	<path fill="#FFFFFF" d="M57.885,147.625c0.041,0.328-0.195,0.631-0.519,0.666c-0.331,0.042-0.629-0.194-0.669-0.522
		c-0.038-0.323,0.195-0.624,0.525-0.663C57.546,147.066,57.845,147.3,57.885,147.625z"/>
	<path fill="#FFFFFF" d="M58.352,139.162c0.041,0.328-0.193,0.626-0.522,0.666c-0.331,0.042-0.629-0.194-0.668-0.522
		c-0.039-0.323,0.195-0.624,0.524-0.663C58.015,138.603,58.313,138.837,58.352,139.162z"/>
	<path fill="#FFFFFF" d="M61.529,122.784c0.041,0.33-0.194,0.63-0.522,0.67c-0.33,0.035-0.629-0.194-0.668-0.527
		c-0.039-0.328,0.194-0.626,0.524-0.666C61.191,122.222,61.488,122.456,61.529,122.784z"/>
	<path fill="#FFFFFF" d="M56.822,138.735c0.04,0.328-0.192,0.626-0.52,0.666c-0.33,0.042-0.628-0.194-0.668-0.522
		c-0.039-0.323,0.194-0.624,0.524-0.663C56.486,138.175,56.783,138.409,56.822,138.735z"/>
	<path fill="#FFFFFF" d="M66.125,106.804c0.04,0.328-0.195,0.623-0.525,0.663c-0.328,0.04-0.624-0.189-0.664-0.518
		c-0.041-0.333,0.191-0.631,0.519-0.668C65.786,106.241,66.084,106.476,66.125,106.804z"/>
	<path fill="#FFFFFF" d="M60.404,122.445c0.041,0.328-0.195,0.626-0.523,0.666c-0.327,0.04-0.625-0.194-0.666-0.522
		c-0.038-0.326,0.195-0.633,0.52-0.673C60.066,121.875,60.366,122.119,60.404,122.445z"/>
	<circle fill="#FFFFFF" cx="50.55" cy="145.719" r="0.602"/>
	<circle fill="#FFFFFF" cx="51.791" cy="137.333" r="0.599"/>
	<path fill="#FFFFFF" d="M47.844,144.42c0.039,0.328-0.197,0.629-0.524,0.668c-0.328,0.04-0.627-0.194-0.667-0.522
		c-0.041-0.333,0.194-0.628,0.524-0.668C47.503,143.861,47.805,144.09,47.844,144.42z"/>
	<circle fill="#FFFFFF" cx="48.884" cy="136.173" r="0.6"/>
	<path fill="#FFFFFF" d="M48.045,135.474c0.039,0.328-0.197,0.628-0.528,0.668c-0.327,0.035-0.625-0.194-0.663-0.522
		c-0.041-0.328,0.192-0.635,0.519-0.675C47.702,134.905,48.005,135.146,48.045,135.474z"/>
	
		<ellipse transform="matrix(0.9927 -0.1209 0.1209 0.9927 -15.9679 6.554)" fill="#FFFFFF" cx="46.032" cy="134.881" rx="0.602" ry="0.594"/>
	<path fill="#FFFFFF" d="M45.226,134.109c0.041,0.332-0.194,0.63-0.522,0.668c-0.331,0.039-0.628-0.192-0.668-0.523
		c-0.039-0.328,0.194-0.628,0.524-0.668C44.887,133.546,45.186,133.781,45.226,134.109z"/>
	<path fill="#FFFFFF" d="M43.844,133.38c0.041,0.33-0.201,0.626-0.528,0.665c-0.329,0.038-0.626-0.189-0.667-0.522
		c-0.041-0.328,0.194-0.626,0.524-0.665C43.499,132.815,43.804,133.052,43.844,133.38z"/>
	<circle fill="#FFFFFF" cx="46.017" cy="125.475" r="0.6"/>
	<path fill="#FFFFFF" d="M41.124,131.819c0.04,0.328-0.194,0.628-0.524,0.668c-0.328,0.04-0.624-0.194-0.664-0.522
		c-0.039-0.326,0.191-0.623,0.521-0.663C40.785,131.259,41.083,131.495,41.124,131.819z"/>
	<path fill="#FFFFFF" d="M48.742,116.974c0.041,0.332-0.194,0.63-0.524,0.668c-0.328,0.039-0.627-0.192-0.667-0.523
		c-0.041-0.328,0.194-0.628,0.522-0.668C48.404,116.411,48.702,116.646,48.742,116.974z"/>
	<path fill="#FFFFFF" d="M62.012,95.851c0.041,0.323-0.197,0.623-0.528,0.663c-0.325,0.04-0.624-0.194-0.663-0.521
		c-0.041-0.328,0.194-0.625,0.521-0.665C61.671,95.286,61.972,95.523,62.012,95.851z"/>
	<circle fill="#FFFFFF" cx="47.255" cy="116.465" r="0.598"/>
	<circle fill="#FFFFFF" cx="56.438" cy="102.6" r="0.598"/>
	<path fill="#FFFFFF" d="M51.589,108.874c0.04,0.33-0.194,0.63-0.52,0.67c-0.33,0.037-0.628-0.194-0.668-0.527
		c-0.041-0.328,0.194-0.626,0.524-0.666C51.251,108.312,51.549,108.546,51.589,108.874z"/>
	<circle fill="#FFFFFF" cx="46.149" cy="115.705" r="0.6"/>
	<circle fill="#FFFFFF" cx="45.739" cy="115.411" r="0.6"/>
	<circle fill="#FFFFFF" cx="60.352" cy="95.192" r="0.599"/>
	<path fill="#FFFFFF" d="M45.839,114.982c0.04,0.328-0.195,0.624-0.52,0.663c-0.33,0.04-0.628-0.191-0.668-0.52
		c-0.039-0.331,0.195-0.631,0.524-0.671C45.502,114.417,45.8,114.649,45.839,114.982z"/>
	<path fill="#FFFFFF" d="M60.244,94.59c0.041,0.328-0.194,0.626-0.522,0.666c-0.33,0.042-0.628-0.194-0.668-0.522
		c-0.039-0.323,0.194-0.624,0.524-0.663C59.906,94.031,60.205,94.265,60.244,94.59z"/>
	<circle fill="#FFFFFF" cx="44.248" cy="114.291" r="0.6"/>
	<path fill="#FFFFFF" d="M39.714,120.767c0.041,0.328-0.194,0.626-0.519,0.665c-0.331,0.038-0.628-0.194-0.668-0.522
		c-0.039-0.328,0.194-0.626,0.524-0.665C39.378,120.201,39.676,120.439,39.714,120.767z"/>
	<path fill="#FFFFFF" d="M39.399,120.519c0.04,0.328-0.193,0.628-0.523,0.668c-0.33,0.04-0.629-0.194-0.669-0.522
		c-0.039-0.333,0.195-0.631,0.524-0.671C39.062,119.953,39.361,120.188,39.399,120.519z"/>
	<path fill="#FFFFFF" d="M44.554,113.991c0.04,0.328-0.195,0.628-0.523,0.668c-0.326,0.037-0.625-0.195-0.665-0.527
		c-0.039-0.324,0.195-0.624,0.521-0.664C44.217,113.429,44.515,113.663,44.554,113.991z"/>
	<path fill="#FFFFFF" d="M38.92,120.134c0.04,0.328-0.195,0.628-0.525,0.668c-0.325,0.039-0.624-0.195-0.664-0.523
		c-0.041-0.332,0.195-0.63,0.519-0.668C38.581,119.572,38.879,119.803,38.92,120.134z"/>
	<path fill="#FFFFFF" d="M44.14,113.658c0.04,0.328-0.193,0.626-0.52,0.666c-0.33,0.042-0.628-0.194-0.668-0.522
		c-0.039-0.323,0.196-0.624,0.524-0.663C43.803,113.099,44.101,113.333,44.14,113.658z"/>
	<path fill="#FFFFFF" d="M33.587,126.519c0.039,0.324-0.191,0.624-0.521,0.664c-0.33,0.039-0.629-0.195-0.667-0.523
		c-0.04-0.328,0.195-0.628,0.523-0.668C33.251,125.952,33.547,126.187,33.587,126.519z"/>
	
		<ellipse transform="matrix(0.9926 -0.1213 0.1213 0.9926 -13.4651 6.1111)" fill="#FFFFFF" cx="43.47" cy="113.672" rx="0.6" ry="0.595"/>
	<path fill="#FFFFFF" d="M54.547,100.685c0.041,0.328-0.192,0.625-0.523,0.665c-0.327,0.04-0.625-0.194-0.666-0.524
		c-0.038-0.326,0.195-0.624,0.521-0.664C54.21,100.119,54.508,100.357,54.547,100.685z"/>
	<circle fill="#FFFFFF" cx="32.862" cy="126.481" r="0.599"/>
	<path fill="#FFFFFF" d="M32.257,125.41c0.041,0.323-0.194,0.623-0.522,0.663c-0.331,0.04-0.629-0.194-0.667-0.521
		c-0.041-0.328,0.192-0.638,0.521-0.677C31.918,124.836,32.218,125.079,32.257,125.41z"/>
	<circle fill="#FFFFFF" cx="24.922" cy="130.624" r="0.6"/>
	<path fill="#FFFFFF" d="M29.928,123.31c0.041,0.335-0.194,0.628-0.524,0.663c-0.328,0.042-0.625-0.183-0.667-0.518
		c-0.041-0.328,0.194-0.629,0.524-0.668C29.59,122.747,29.888,122.982,29.928,123.31z"/>
	<path fill="#FFFFFF" d="M58.182,92.798c0.041,0.328-0.194,0.624-0.524,0.663c-0.329,0.04-0.627-0.191-0.667-0.52
		c-0.041-0.331,0.194-0.631,0.524-0.671C57.843,92.234,58.142,92.465,58.182,92.798z"/>
	<path fill="#FFFFFF" d="M40.496,110.396c0.04,0.33-0.194,0.63-0.523,0.67c-0.327,0.037-0.625-0.194-0.665-0.527
		c-0.041-0.328,0.194-0.626,0.519-0.666C40.157,109.833,40.456,110.068,40.496,110.396z"/>
	<path fill="#FFFFFF" d="M51.641,98.006c0.04,0.34-0.192,0.637-0.52,0.675c-0.329,0.04-0.627-0.192-0.668-0.53
		c-0.039-0.328,0.194-0.623,0.524-0.663C51.302,97.448,51.601,97.678,51.641,98.006z"/>
	<circle fill="#FFFFFF" cx="33.078" cy="115.393" r="0.6"/>
	<circle fill="#FFFFFF" cx="44.641" cy="103.417" r="0.6"/>
	<path fill="#FFFFFF" d="M39.101,108.96c0.039,0.328-0.195,0.628-0.521,0.668c-0.331,0.037-0.629-0.195-0.667-0.523
		c-0.04-0.328,0.195-0.628,0.523-0.668C38.762,108.398,39.061,108.632,39.101,108.96z"/>
	<path fill="#FFFFFF" d="M33.012,114.628c0.04,0.323-0.194,0.623-0.523,0.663c-0.327,0.04-0.625-0.194-0.665-0.521
		c-0.039-0.328,0.194-0.625,0.521-0.665C32.673,114.064,32.972,114.3,33.012,114.628z"/>
	<circle fill="#FFFFFF" cx="26.032" cy="120.043" r="0.598"/>
	<path fill="#FFFFFF" d="M56.833,91.371c0.041,0.331-0.196,0.631-0.526,0.671c-0.33,0.037-0.628-0.195-0.668-0.527
		c-0.039-0.324,0.194-0.624,0.524-0.664C56.493,90.812,56.794,91.046,56.833,91.371z"/>
	<path fill="#FFFFFF" d="M31.708,113.18c0.041,0.328-0.194,0.629-0.521,0.668c-0.329,0.04-0.627-0.194-0.667-0.522
		s0.194-0.628,0.524-0.668C31.37,112.62,31.668,112.852,31.708,113.18z"/>
	<path fill="#FFFFFF" d="M37.968,107.708c0.041,0.328-0.191,0.628-0.519,0.663c-0.331,0.042-0.628-0.189-0.667-0.518
		c-0.041-0.328,0.192-0.629,0.522-0.668C37.633,107.146,37.93,107.38,37.968,107.708z"/>
	<circle fill="#FFFFFF" cx="36.721" cy="107.016" r="0.599"/>
	<circle fill="#FFFFFF" cx="35.979" cy="106.106" r="0.6"/>
	<circle fill="#FFFFFF" cx="35.916" cy="106.028" r="0.6"/>
	<path fill="#FFFFFF" d="M23.328,116.105c0.041,0.328-0.194,0.625-0.522,0.665c-0.327,0.04-0.625-0.194-0.665-0.522
		c-0.039-0.328,0.194-0.631,0.521-0.666C22.99,115.539,23.288,115.777,23.328,116.105z"/>
	<path fill="#FFFFFF" d="M36.374,105.781c0.04,0.331-0.195,0.631-0.523,0.671c-0.326,0.037-0.625-0.195-0.665-0.527
		c-0.039-0.324,0.195-0.624,0.521-0.664C36.037,105.222,36.335,105.456,36.374,105.781z"/>
	<path fill="#FFFFFF" d="M16.425,120.777c0.041,0.328-0.194,0.628-0.522,0.668c-0.33,0.039-0.629-0.195-0.668-0.523
		c-0.041-0.332,0.194-0.628,0.524-0.668C16.087,120.214,16.386,120.446,16.425,120.777z"/>
	<path fill="#FFFFFF" d="M55.793,90.115c0.041,0.326-0.195,0.623-0.519,0.663c-0.331,0.04-0.629-0.194-0.669-0.518
		c-0.038-0.333,0.195-0.631,0.525-0.671C55.454,89.552,55.754,89.784,55.793,90.115z"/>
	<path fill="#FFFFFF" d="M55.716,90.011c0.041,0.33-0.195,0.63-0.519,0.665c-0.331,0.04-0.629-0.189-0.669-0.522
		c-0.04-0.328,0.194-0.626,0.523-0.666C55.377,89.446,55.676,89.683,55.716,90.011z"/>
	<path fill="#FFFFFF" d="M21.676,113.912c0.04,0.333-0.196,0.631-0.523,0.668c-0.328,0.04-0.63-0.192-0.67-0.522
		c-0.04-0.326,0.198-0.623,0.526-0.663C21.336,113.353,21.637,113.589,21.676,113.912z"/>
	<path fill="#FFFFFF" d="M41.871,99.263c0.039,0.328-0.196,0.628-0.524,0.668c-0.327,0.037-0.625-0.195-0.664-0.523
		c-0.04-0.328,0.192-0.628,0.52-0.668C41.532,98.7,41.831,98.935,41.871,99.263z"/>
	<path fill="#FFFFFF" d="M48.609,94.385c0.039,0.328-0.191,0.626-0.524,0.666c-0.328,0.042-0.627-0.194-0.667-0.522
		c-0.041-0.323,0.194-0.624,0.522-0.663C48.274,93.825,48.569,94.06,48.609,94.385z"/>
	<path fill="#FFFFFF" d="M35.118,104.112c0.041,0.328-0.199,0.635-0.524,0.675c-0.33,0.04-0.63-0.201-0.668-0.529
		c-0.041-0.328,0.193-0.629,0.523-0.668C34.774,103.549,35.08,103.783,35.118,104.112z"/>
	<path fill="#FFFFFF" d="M28.365,108.967c0.039,0.328-0.194,0.638-0.523,0.675c-0.327,0.04-0.633-0.201-0.672-0.529
		c-0.041-0.328,0.201-0.629,0.526-0.668C28.027,108.405,28.325,108.639,28.365,108.967z"/>
	<path fill="#FFFFFF" d="M55.333,89.49c0.041,0.328-0.194,0.628-0.524,0.668c-0.328,0.04-0.627-0.194-0.667-0.522
		c-0.041-0.328,0.194-0.628,0.524-0.663C54.996,88.931,55.294,89.16,55.333,89.49z"/>
	<circle fill="#FFFFFF" cx="47.647" cy="93.941" r="0.599"/>
	<path fill="#FFFFFF" d="M20.771,112.631c0.041,0.335-0.194,0.633-0.522,0.673c-0.331,0.039-0.628-0.195-0.668-0.53
		c-0.039-0.323,0.194-0.623,0.524-0.663C20.433,112.071,20.732,112.305,20.771,112.631z"/>
	<path fill="#FFFFFF" d="M12.94,115.885c0.039,0.333-0.194,0.63-0.524,0.67c-0.328,0.04-0.627-0.194-0.667-0.524
		c-0.041-0.326,0.194-0.624,0.522-0.664C12.602,115.327,12.9,115.562,12.94,115.885z"/>
	<path fill="#FFFFFF" d="M19.057,110.017c0.04,0.328-0.195,0.625-0.521,0.665c-0.328,0.04-0.627-0.194-0.667-0.522
		c-0.041-0.328,0.195-0.626,0.524-0.666C18.718,109.456,19.016,109.689,19.057,110.017z"/>
	<path fill="#FFFFFF" d="M11.08,112.898c0.038,0.328-0.195,0.625-0.525,0.665c-0.325,0.04-0.624-0.194-0.664-0.522
		c-0.041-0.328,0.195-0.626,0.519-0.666C10.741,112.332,11.04,112.57,11.08,112.898z"/>
	<path fill="#FFFFFF" d="M10.206,111.37c0.041,0.328-0.194,0.628-0.528,0.668c-0.328,0.039-0.627-0.195-0.667-0.523
		c-0.041-0.328,0.194-0.628,0.524-0.668C9.868,110.808,10.166,111.042,10.206,111.37z"/>
	<circle fill="#FFFFFF" cx="23.485" cy="102.137" r="0.6"/>
	<path fill="#FFFFFF" d="M53.316,86.175c0.041,0.328-0.194,0.628-0.522,0.668c-0.331,0.037-0.629-0.195-0.668-0.523
		c-0.039-0.328,0.194-0.628,0.524-0.668C52.978,85.613,53.278,85.847,53.316,86.175z"/>
	
		<ellipse transform="matrix(0.9926 -0.1213 0.1213 0.9926 -10.5787 6.1568)" fill="#FFFFFF" cx="45.289" cy="89.982" rx="0.6" ry="0.595"/>
	<circle fill="#FFFFFF" cx="8.154" cy="108.704" r="0.599"/>
	<path fill="#FFFFFF" d="M53.247,86.033c0.041,0.328-0.194,0.628-0.524,0.668c-0.328,0.04-0.627-0.194-0.667-0.522
		c-0.041-0.326,0.194-0.623,0.524-0.663C52.909,85.474,53.207,85.71,53.247,86.033z"/>
	<circle fill="#FFFFFF" cx="30.306" cy="97.213" r="0.6"/>
	<path fill="#FFFFFF" d="M15.329,103.139c0.041,0.328-0.195,0.628-0.523,0.668c-0.33,0.04-0.632-0.194-0.672-0.522
		c-0.041-0.326,0.197-0.628,0.528-0.663C14.99,102.579,15.289,102.811,15.329,103.139z"/>
	<path fill="#FFFFFF" d="M37.9,92.506c0.041,0.328-0.194,0.626-0.522,0.666c-0.331,0.042-0.628-0.194-0.668-0.522
		c-0.039-0.323,0.194-0.624,0.524-0.663C37.563,91.947,37.862,92.181,37.9,92.506z"/>
	<path fill="#FFFFFF" d="M52.966,85.462c0.041,0.328-0.194,0.625-0.522,0.665c-0.327,0.04-0.625-0.194-0.665-0.522
		c-0.039-0.328,0.194-0.631,0.521-0.666C52.628,84.897,52.927,85.134,52.966,85.462z"/>
	<path fill="#FFFFFF" d="M30.203,95.674c0.041,0.328-0.193,0.633-0.522,0.673c-0.331,0.04-0.629-0.201-0.668-0.529
		c-0.041-0.328,0.194-0.626,0.522-0.666C29.865,95.112,30.164,95.346,30.203,95.674z"/>
	<path fill="#FFFFFF" d="M22.637,99.129c0.041,0.328-0.192,0.628-0.526,0.668c-0.327,0.04-0.625-0.194-0.665-0.522
		c-0.039-0.326,0.194-0.623,0.521-0.663C22.3,98.57,22.598,98.806,22.637,99.129z"/>
	<path fill="#FFFFFF" d="M37.755,92.203c0.039,0.323-0.191,0.623-0.521,0.663c-0.329,0.04-0.629-0.194-0.667-0.521
		c-0.04-0.33,0.193-0.638,0.523-0.677C37.418,91.629,37.715,91.87,37.755,92.203z"/>
	<circle fill="#FFFFFF" cx="52.282" cy="85.336" r="0.599"/>
	<path fill="#FFFFFF" d="M30.081,95.415c0.041,0.328-0.194,0.623-0.522,0.663c-0.327,0.04-0.624-0.192-0.663-0.521
		c-0.041-0.328,0.194-0.625,0.519-0.665C29.745,94.851,30.042,95.087,30.081,95.415z"/>
	<path fill="#FFFFFF" d="M22.494,98.815c0.041,0.333-0.189,0.638-0.519,0.675c-0.332,0.04-0.632-0.199-0.672-0.529
		c-0.039-0.328,0.194-0.629,0.528-0.668C22.159,98.252,22.455,98.487,22.494,98.815z"/>
	<path fill="#FFFFFF" d="M14.826,102.045c0.041,0.333-0.192,0.631-0.522,0.668c-0.331,0.04-0.628-0.192-0.668-0.522
		c-0.039-0.326,0.194-0.623,0.524-0.663C14.49,101.486,14.788,101.722,14.826,102.045z"/>
	<path fill="#FFFFFF" d="M52.768,85.019c0.041,0.33-0.194,0.63-0.522,0.665c-0.331,0.04-0.628-0.189-0.668-0.522
		c-0.039-0.318,0.194-0.626,0.524-0.666C52.429,84.453,52.729,84.699,52.768,85.019z"/>
	<path fill="#FFFFFF" d="M29.944,95.101c0.041,0.325-0.198,0.623-0.526,0.663c-0.33,0.04-0.628-0.194-0.668-0.518
		c-0.039-0.328,0.194-0.629,0.524-0.668C29.603,94.538,29.904,94.77,29.944,95.101z"/>
	<circle fill="#FFFFFF" cx="36.923" cy="91.74" r="0.597"/>
	<circle fill="#FFFFFF" cx="51.918" cy="84.495" r="0.6"/>
	<path fill="#FFFFFF" d="M13.974,100.048c0.041,0.328-0.194,0.628-0.523,0.668c-0.33,0.04-0.632-0.194-0.672-0.522
		c-0.041-0.333,0.198-0.631,0.528-0.671C13.635,99.483,13.933,99.717,13.974,100.048z"/>
	<path fill="#FFFFFF" d="M13.749,99.49c0.041,0.328-0.195,0.625-0.523,0.665c-0.33,0.04-0.631-0.189-0.672-0.522
		c-0.039-0.328,0.197-0.626,0.528-0.666C13.41,98.924,13.71,99.161,13.749,99.49z"/>
	<path fill="#FFFFFF" d="M29.01,92.845c0.041,0.328-0.197,0.625-0.522,0.665c-0.33,0.04-0.629-0.194-0.668-0.522
		c-0.041-0.328,0.194-0.626,0.524-0.666C28.669,92.282,28.97,92.517,29.01,92.845z"/>
	<circle fill="#FFFFFF" cx="51.496" cy="83.401" r="0.6"/>
	<circle fill="#FFFFFF" cx="27.622" cy="90.705" r="0.6"/>
	<path fill="#FFFFFF" d="M43.77,84.65c0.039,0.328-0.195,0.626-0.524,0.665c-0.33,0.038-0.629-0.194-0.667-0.522
		c-0.04-0.328,0.194-0.626,0.523-0.665C43.431,84.084,43.73,84.322,43.77,84.65z"/>
	<path fill="#FFFFFF" d="M19.904,91.943c0.039,0.328-0.194,0.625-0.524,0.665c-0.325,0.04-0.624-0.194-0.664-0.522
		s0.194-0.626,0.52-0.666C19.565,91.38,19.864,91.615,19.904,91.943z"/>
	<path fill="#FFFFFF" d="M3.996,96.802c0.039,0.328-0.194,0.628-0.524,0.668c-0.328,0.04-0.627-0.194-0.667-0.522
		c-0.041-0.333,0.194-0.631,0.522-0.671C3.658,96.237,3.956,96.471,3.996,96.802z"/>
	<path fill="#FFFFFF" d="M51.655,81.997c0.04,0.328-0.194,0.628-0.521,0.668c-0.329,0.039-0.627-0.195-0.667-0.523
		c-0.041-0.332,0.194-0.63,0.523-0.67C51.316,81.435,51.614,81.669,51.655,81.997z"/>
	<path fill="#FFFFFF" d="M43.594,84.064c0.041,0.328-0.195,0.628-0.521,0.668c-0.329,0.037-0.627-0.195-0.667-0.523
		c-0.04-0.328,0.195-0.628,0.525-0.668C43.255,83.501,43.554,83.736,43.594,84.064z"/>
	<circle fill="#FFFFFF" cx="27.007" cy="88.711" r="0.6"/>
	<path fill="#FFFFFF" d="M19.6,90.906c0.039,0.328-0.195,0.626-0.524,0.666c-0.33,0.04-0.629-0.194-0.667-0.522
		c-0.04-0.323,0.194-0.624,0.523-0.663C19.261,90.347,19.56,90.581,19.6,90.906z"/>
	<path fill="#FFFFFF" d="M35.556,86.206c0.041,0.328-0.194,0.628-0.521,0.668c-0.329,0.039-0.627-0.195-0.667-0.523
		c-0.04-0.332,0.194-0.63,0.523-0.67C35.217,85.644,35.516,85.875,35.556,86.206z"/>
	<circle fill="#FFFFFF" cx="10.918" cy="92.952" r="0.6"/>
	<path fill="#FFFFFF" d="M27.229,87.255c0.039,0.328-0.194,0.628-0.524,0.668c-0.325,0.039-0.632-0.195-0.67-0.523
		c-0.04-0.328,0.199-0.628,0.526-0.668C26.89,86.693,27.188,86.927,27.229,87.255z"/>
	<circle fill="#FFFFFF" cx="18.487" cy="89.043" r="0.6"/>
	<path fill="#FFFFFF" d="M26.951,86.115c0.04,0.328-0.196,0.628-0.526,0.668c-0.328,0.039-0.627-0.195-0.667-0.523
		c-0.04-0.332,0.195-0.63,0.523-0.668C26.611,85.552,26.912,85.783,26.951,86.115z"/>
	<path fill="#FFFFFF" d="M2.257,89.995c0.041,0.328-0.194,0.625-0.523,0.665c-0.323,0.04-0.625-0.194-0.665-0.522
		s0.198-0.631,0.521-0.666C1.918,89.43,2.217,89.667,2.257,89.995z"/>
	<path fill="#FFFFFF" d="M10.108,86.784c0.039,0.326-0.194,0.623-0.521,0.663c-0.329,0.04-0.627-0.194-0.667-0.518
		c-0.04-0.333,0.194-0.631,0.523-0.671C9.77,86.222,10.067,86.454,10.108,86.784z"/>
	<path fill="#FFFFFF" d="M1.629,86.532c0.039,0.326-0.198,0.623-0.524,0.663c-0.325,0.04-0.624-0.194-0.664-0.522
		s0.194-0.626,0.52-0.666C1.287,85.97,1.589,86.202,1.629,86.532z"/>
	<circle fill="#FFFFFF" cx="42.108" cy="80.07" r="0.598"/>
	<circle fill="#FFFFFF" cx="50.325" cy="78.791" r="0.6"/>
	<path fill="#FFFFFF" d="M26.254,82.501c0.041,0.325-0.194,0.623-0.522,0.663c-0.325,0.04-0.625-0.194-0.663-0.518
		c-0.041-0.328,0.194-0.629,0.519-0.668C25.918,81.939,26.216,82.173,26.254,82.501z"/>
	<path fill="#FFFFFF" d="M18.026,83.701c0.041,0.328-0.194,0.631-0.528,0.67c-0.325,0.038-0.623-0.196-0.663-0.524
		c-0.041-0.328,0.194-0.624,0.521-0.663C17.688,83.144,17.987,83.373,18.026,83.701z"/>
	<circle fill="#FFFFFF" cx="33.764" cy="80.486" r="0.6"/>
	<path fill="#FFFFFF" d="M9.624,83.691c0.039,0.328-0.197,0.628-0.524,0.668c-0.328,0.039-0.627-0.195-0.667-0.521
		c-0.041-0.338,0.194-0.631,0.522-0.671C9.282,83.128,9.582,83.355,9.624,83.691z"/>
	<path fill="#FFFFFF" d="M50.719,77.035c0.041,0.333-0.194,0.628-0.519,0.668c-0.331,0.04-0.629-0.194-0.669-0.522
		s0.194-0.623,0.524-0.663C50.38,76.476,50.679,76.707,50.719,77.035z"/>
	<circle fill="#FFFFFF" cx="8.573" cy="79.088" r="0.598"/>
	<path fill="#FFFFFF" d="M9.089,77.449c0.041,0.333-0.195,0.631-0.524,0.67c-0.325,0.038-0.624-0.194-0.664-0.524
		c-0.04-0.328,0.195-0.628,0.521-0.663C8.75,76.889,9.049,77.121,9.089,77.449z"/>
	<path fill="#FFFFFF" d="M33.999,74.547c0.041,0.331-0.194,0.628-0.522,0.668c-0.331,0.04-0.632-0.195-0.672-0.523
		s0.198-0.631,0.526-0.671C33.66,73.98,33.958,74.22,33.999,74.547z"/>
	<path fill="#FFFFFF" d="M0.84,70.73c0.041,0.328-0.191,0.627-0.52,0.667c-0.333,0.041-0.632-0.194-0.671-0.522
		c-0.039-0.328,0.194-0.627,0.527-0.667C0.507,70.168,0.802,70.402,0.84,70.73z"/>
	<path fill="#FFFFFF" d="M25.94,69.788c0.041,0.326-0.198,0.625-0.519,0.665c-0.331,0.041-0.629-0.195-0.669-0.521
		c-0.04-0.333,0.195-0.632,0.525-0.672C25.599,69.22,25.9,69.454,25.94,69.788z"/>
	<path fill="#FFFFFF" d="M1.568,63.729c0.039,0.326-0.194,0.626-0.524,0.665c-0.332,0.041-0.63-0.192-0.67-0.521
		c-0.04-0.328,0.193-0.629,0.526-0.67C1.23,63.162,1.528,63.399,1.568,63.729z"/>
	<path fill="#FFFFFF" d="M2.174,60.259c0.039,0.328-0.194,0.627-0.524,0.667c-0.325,0.04-0.624-0.195-0.664-0.523
		s0.194-0.63,0.52-0.67C1.836,59.693,2.134,59.931,2.174,60.259z"/>
	<circle fill="#FFFFFF" cx="2.351" cy="56.894" r="0.601"/>
	<path fill="#FFFFFF" d="M11.413,57.319c0.041,0.328-0.197,0.625-0.522,0.666c-0.331,0.04-0.628-0.195-0.668-0.521
		c-0.039-0.331,0.194-0.629,0.524-0.669C11.072,56.756,11.374,56.989,11.413,57.319z"/>
	<path fill="#FFFFFF" d="M3.878,53.426c0.04,0.326-0.195,0.625-0.525,0.665c-0.325,0.041-0.624-0.195-0.664-0.521
		c-0.041-0.33,0.195-0.629,0.519-0.668C3.539,52.863,3.837,53.095,3.878,53.426z"/>
	<path fill="#FFFFFF" d="M20.222,56.889c0.041,0.334-0.192,0.631-0.522,0.671c-0.328,0.041-0.627-0.193-0.667-0.527
		c-0.041-0.327,0.194-0.621,0.522-0.662C19.885,56.331,20.183,56.562,20.222,56.889z"/>
	<path fill="#FFFFFF" d="M28.508,58.355c0.041,0.331-0.197,0.627-0.528,0.667c-0.325,0.039-0.624-0.192-0.663-0.523
		c-0.041-0.327,0.194-0.625,0.519-0.666C28.167,57.794,28.469,58.029,28.508,58.355z"/>
	<path fill="#FFFFFF" d="M52.246,66.084c0.039,0.328-0.194,0.628-0.524,0.666c-0.325,0.041-0.624-0.193-0.664-0.523
		c-0.04-0.328,0.194-0.625,0.52-0.666C51.907,65.522,52.205,65.755,52.246,66.084z"/>
	<circle fill="#FFFFFF" cx="36.118" cy="60.208" r="0.599"/>
	<path fill="#FFFFFF" d="M28.971,57.089c0.04,0.331-0.192,0.632-0.523,0.672c-0.33,0.041-0.625-0.198-0.665-0.529
		c-0.039-0.326,0.191-0.625,0.521-0.665C28.634,56.527,28.933,56.762,28.971,57.089z"/>
	<circle fill="#FFFFFF" cx="5.417" cy="47.369" r="0.597"/>
	<path fill="#FFFFFF" d="M13.927,49.909c0.039,0.331-0.198,0.627-0.524,0.667c-0.33,0.039-0.632-0.192-0.67-0.523
		c-0.041-0.327,0.198-0.627,0.526-0.665C13.585,49.348,13.887,49.581,13.927,49.909z"/>
	<path fill="#FFFFFF" d="M37.823,57.493c0.04,0.33-0.195,0.625-0.523,0.665c-0.33,0.041-0.625-0.192-0.665-0.52
		c-0.039-0.328,0.191-0.632,0.519-0.673C37.484,56.927,37.785,57.164,37.823,57.493z"/>
	<path fill="#FFFFFF" d="M8.374,41.962c0.041,0.329-0.192,0.627-0.522,0.667c-0.325,0.039-0.625-0.194-0.663-0.522
		c-0.041-0.329,0.194-0.627,0.519-0.667C8.038,41.399,8.335,41.634,8.374,41.962z"/>
	<circle fill="#FFFFFF" cx="52.85" cy="63.479" r="0.602"/>
	<circle fill="#FFFFFF" cx="23.98" cy="46.926" r="0.6"/>
	<path fill="#FFFFFF" d="M46.505,58.753c0.039,0.33-0.194,0.627-0.524,0.667c-0.325,0.039-0.624-0.192-0.664-0.523
		c-0.04-0.328,0.194-0.627,0.52-0.666C46.167,58.192,46.465,58.426,46.505,58.753z"/>
	<path fill="#FFFFFF" d="M17.811,41.913c0.039,0.328-0.194,0.627-0.524,0.667c-0.325,0.041-0.624-0.194-0.664-0.522
		c-0.041-0.328,0.194-0.627,0.519-0.667C17.473,41.35,17.771,41.585,17.811,41.913z"/>
	<path fill="#FFFFFF" d="M39.541,54.175c0.04,0.328-0.195,0.628-0.52,0.667c-0.33,0.04-0.628-0.195-0.668-0.523
		c-0.041-0.333,0.195-0.63,0.523-0.67C39.202,53.61,39.5,53.842,39.541,54.175z"/>
	<path fill="#FFFFFF" d="M10.867,37.308c0.041,0.327-0.194,0.625-0.523,0.665c-0.327,0.039-0.625-0.194-0.665-0.523
		c-0.04-0.332,0.194-0.63,0.52-0.67C10.529,36.74,10.827,36.975,10.867,37.308z"/>
	<path fill="#FFFFFF" d="M33.042,48.834c0.039,0.328-0.194,0.627-0.524,0.667c-0.325,0.041-0.624-0.194-0.664-0.522
		c-0.04-0.329,0.194-0.627,0.52-0.667C32.703,48.271,33.001,48.505,33.042,48.834z"/>
	<path fill="#FFFFFF" d="M54.489,61.59c0.039,0.328-0.195,0.628-0.524,0.666c-0.327,0.04-0.625-0.195-0.664-0.521
		c-0.04-0.331,0.195-0.629,0.52-0.669C54.15,61.028,54.449,61.26,54.489,61.59z"/>
	<circle fill="#FFFFFF" cx="33.073" cy="47.913" r="0.602"/>
	<path fill="#FFFFFF" d="M54.952,60.886c0.039,0.328-0.195,0.628-0.524,0.667c-0.333,0.041-0.629-0.192-0.667-0.523
		c-0.04-0.328,0.191-0.625,0.523-0.666C54.613,60.325,54.912,60.558,54.952,60.886z"/>
	<circle fill="#FFFFFF" cx="27.019" cy="42.004" r="0.6"/>
	<path fill="#FFFFFF" d="M34.477,46.626c0.039,0.331-0.195,0.629-0.524,0.668c-0.325,0.039-0.624-0.194-0.664-0.524
		c-0.04-0.326,0.195-0.625,0.52-0.665C34.138,46.065,34.437,46.3,34.477,46.626z"/>
	<circle fill="#FFFFFF" cx="54.443" cy="60.831" r="0.602"/>
	<circle fill="#FFFFFF" cx="13.582" cy="32.191" r="0.602"/>
	<circle fill="#FFFFFF" cx="54.6" cy="60.608" r="0.599"/>
	<path fill="#FFFFFF" d="M28.06,41.293c0.041,0.329-0.194,0.626-0.52,0.665c-0.33,0.041-0.632-0.193-0.671-0.521
		c-0.041-0.329,0.197-0.627,0.527-0.667C27.722,40.731,28.02,40.964,28.06,41.293z"/>
	<path fill="#FFFFFF" d="M34.987,45.901c0.04,0.328-0.195,0.626-0.523,0.665c-0.326,0.041-0.625-0.193-0.665-0.521
		c-0.039-0.329,0.195-0.632,0.519-0.67C34.648,45.335,34.949,45.573,34.987,45.901z"/>
	<path fill="#FFFFFF" d="M35.681,44.952c0.041,0.327-0.194,0.625-0.519,0.665c-0.331,0.04-0.628-0.194-0.668-0.521
		c-0.039-0.33,0.194-0.627,0.524-0.667C35.343,44.39,35.642,44.622,35.681,44.952z"/>
	<path fill="#FFFFFF" d="M55.659,59.901c0.038,0.328-0.196,0.624-0.525,0.662c-0.327,0.041-0.624-0.189-0.664-0.517
		c-0.041-0.334,0.192-0.633,0.519-0.672C55.319,59.335,55.617,59.568,55.659,59.901z"/>
	<path fill="#FFFFFF" d="M55.675,59.873c0.04,0.33-0.19,0.632-0.517,0.67c-0.333,0.041-0.631-0.198-0.671-0.526
		c-0.039-0.331,0.195-0.625,0.527-0.666C55.341,59.312,55.636,59.545,55.675,59.873z"/>
	<path fill="#FFFFFF" d="M36.398,44.022c0.04,0.329-0.195,0.625-0.521,0.665c-0.328,0.04-0.627-0.192-0.667-0.523
		c-0.041-0.327,0.195-0.625,0.524-0.665C36.06,43.461,36.358,43.693,36.398,44.022z"/>
	<path fill="#FFFFFF" d="M43.542,48.407c0.041,0.329-0.194,0.63-0.519,0.67c-0.331,0.04-0.628-0.198-0.668-0.527
		c-0.039-0.327,0.194-0.625,0.524-0.666C43.205,47.845,43.503,48.079,43.542,48.407z"/>
	<path fill="#FFFFFF" d="M25.061,31.631c0.039,0.329-0.194,0.626-0.524,0.665c-0.325,0.041-0.624-0.195-0.663-0.521
		c-0.041-0.33,0.194-0.629,0.519-0.667C24.723,31.068,25.021,31.301,25.061,31.631z"/>
	<circle fill="#FFFFFF" cx="43.415" cy="47.93" r="0.599"/>
	<circle fill="#FFFFFF" cx="56.045" cy="58.751" r="0.6"/>
	<circle fill="#FFFFFF" cx="37.111" cy="42.505" r="0.597"/>
	<path fill="#FFFFFF" d="M44.178,47.663c0.04,0.329-0.195,0.627-0.52,0.667c-0.33,0.041-0.628-0.194-0.668-0.524
		c-0.041-0.327,0.195-0.625,0.524-0.665C43.839,47.1,44.137,47.335,44.178,47.663z"/>
	<path fill="#FFFFFF" d="M38.677,41.335c0.041,0.328-0.194,0.627-0.52,0.667c-0.33,0.041-0.632-0.195-0.671-0.523
		c-0.039-0.328,0.197-0.627,0.528-0.667C38.339,40.774,38.637,41.007,38.677,41.335z"/>
	<circle fill="#FFFFFF" cx="38.526" cy="40.929" r="0.6"/>
	<circle fill="#FFFFFF" cx="26.848" cy="29.067" r="0.6"/>
	<path fill="#FFFFFF" d="M46.879,44.829c0.041,0.331-0.195,0.632-0.519,0.672c-0.331,0.039-0.629-0.198-0.669-0.528
		c-0.04-0.327,0.195-0.625,0.523-0.665C46.541,44.268,46.839,44.503,46.879,44.829z"/>
	<path fill="#FFFFFF" d="M48.329,43.515c0.04,0.331-0.196,0.627-0.526,0.667c-0.325,0.041-0.627-0.192-0.667-0.521
		s0.198-0.627,0.523-0.667C47.989,42.954,48.29,43.189,48.329,43.515z"/>
	<path fill="#FFFFFF" d="M29.235,16.152c0.041,0.33-0.194,0.627-0.519,0.665c-0.331,0.041-0.629-0.192-0.669-0.521
		c-0.039-0.329,0.194-0.627,0.524-0.665C28.897,15.591,29.195,15.825,29.235,16.152z"/>
	<path fill="#FFFFFF" d="M32.055,14.038c0.041,0.326-0.197,0.626-0.522,0.665c-0.33,0.041-0.629-0.195-0.669-0.521
		c-0.039-0.33,0.195-0.629,0.524-0.668C31.713,13.475,32.015,13.708,32.055,14.038z"/>
	<circle fill="#FFFFFF" cx="56.283" cy="47.481" r="0.6"/>
	<path fill="#FFFFFF" d="M52.421,40.384c0.039,0.331-0.194,0.632-0.523,0.67c-0.327,0.041-0.625-0.197-0.665-0.526
		c-0.04-0.328,0.194-0.627,0.52-0.665C52.083,39.823,52.381,40.057,52.421,40.384z"/>
	<path fill="#FFFFFF" d="M39.482,19.043c0.039,0.326-0.194,0.625-0.524,0.665c-0.325,0.041-0.626-0.195-0.667-0.521
		c-0.041-0.33,0.197-0.629,0.522-0.668C39.144,18.48,39.443,18.713,39.482,19.043z"/>
	<circle fill="#FFFFFF" cx="44.559" cy="25.368" r="0.6"/>
	<circle fill="#FFFFFF" cx="49.643" cy="32.014" r="0.6"/>
	<circle fill="#FFFFFF" cx="37.377" cy="10.289" r="0.598"/>
	<path fill="#FFFFFF" d="M64.075,52.779c0.039,0.331-0.194,0.632-0.521,0.672c-0.332,0.04-0.632-0.198-0.67-0.528
		c-0.041-0.326,0.194-0.625,0.526-0.665C63.737,52.218,64.035,52.453,64.075,52.779z"/>
	<path fill="#FFFFFF" d="M53.616,30.123c0.039,0.327-0.194,0.625-0.524,0.666c-0.33,0.04-0.628-0.195-0.667-0.521
		c-0.041-0.331,0.193-0.628,0.522-0.668C53.278,29.56,53.576,29.793,53.616,30.123z"/>
	<circle fill="#FFFFFF" cx="54.045" cy="29.705" r="0.6"/>
	<path fill="#FFFFFF" d="M65.129,52.264c0.041,0.329-0.194,0.627-0.526,0.669c-0.327,0.038-0.625-0.196-0.665-0.525
		c-0.039-0.328,0.194-0.627,0.521-0.665C64.791,51.703,65.089,51.936,65.129,52.264z"/>
	<circle fill="#FFFFFF" cx="51.846" cy="21.581" r="0.6"/>
	<circle fill="#FFFFFF" cx="62.225" cy="44.274" r="0.597"/>
	<circle fill="#FFFFFF" cx="46.297" cy="5.873" r="0.599"/>
	<path fill="#FFFFFF" d="M56.529,28.808c0.041,0.327-0.194,0.625-0.524,0.666c-0.329,0.04-0.627-0.194-0.667-0.521
		c-0.041-0.331,0.194-0.628,0.524-0.668C56.191,28.245,56.49,28.477,56.529,28.808z"/>
	<path fill="#FFFFFF" d="M59.726,36.485c0.041,0.328-0.192,0.627-0.526,0.667c-0.325,0.041-0.624-0.194-0.663-0.522
		c-0.041-0.329,0.193-0.63,0.519-0.668C59.387,35.92,59.687,36.156,59.726,36.485z"/>
	<path fill="#FFFFFF" d="M56.83,28.688c0.039,0.326-0.191,0.625-0.521,0.665c-0.331,0.04-0.629-0.195-0.667-0.521
		c-0.041-0.331,0.192-0.632,0.523-0.672C56.493,28.119,56.79,28.357,56.83,28.688z"/>
	<circle fill="#FFFFFF" cx="57.329" cy="28.329" r="0.598"/>
	<path fill="#FFFFFF" d="M54.994,20.473c0.039,0.328-0.194,0.63-0.524,0.668c-0.325,0.041-0.624-0.197-0.664-0.524
		c-0.041-0.33,0.194-0.628,0.519-0.667C54.655,19.91,54.954,20.143,54.994,20.473z"/>
	<circle fill="#FFFFFF" cx="50.089" cy="4.418" r="0.6"/>
	<circle fill="#FFFFFF" cx="55.655" cy="20.088" r="0.597"/>
	<path fill="#FFFFFF" d="M59.027,27.851c0.041,0.327-0.194,0.628-0.519,0.668c-0.334,0.041-0.632-0.198-0.672-0.524
		c-0.041-0.33,0.194-0.624,0.528-0.664C58.69,27.291,58.988,27.521,59.027,27.851z"/>
	<path fill="#FFFFFF" d="M60.139,27.477c0.041,0.329-0.191,0.625-0.523,0.667c-0.327,0.038-0.625-0.196-0.666-0.523
		c-0.038-0.33,0.195-0.629,0.521-0.667C59.803,26.914,60.099,27.148,60.139,27.477z"/>
	<circle fill="#FFFFFF" cx="59.827" cy="27.456" r="0.6"/>
	<circle fill="#FFFFFF" cx="60.192" cy="27.344" r="0.6"/>
	<circle fill="#FFFFFF" cx="60.666" cy="27.198" r="0.6"/>
	<path fill="#FFFFFF" d="M62.39,26.801c0.041,0.33-0.193,0.629-0.526,0.668c-0.325,0.039-0.625-0.194-0.663-0.524
		c-0.041-0.327,0.194-0.627,0.519-0.665C62.053,26.24,62.351,26.472,62.39,26.801z"/>
	<circle fill="#FFFFFF" cx="58.907" cy="10.44" r="0.6"/>
	<circle fill="#FFFFFF" cx="58.911" cy="10.441" r="0.6"/>
	<circle fill="#FFFFFF" cx="61.968" cy="9.756" r="0.6"/>
	<circle fill="#FFFFFF" cx="65.052" cy="9.216" r="0.599"/>
	<path fill="#FFFFFF" d="M66.15,0.677c0.041,0.333-0.192,0.632-0.526,0.672C65.297,1.389,65,1.154,64.959,0.823
		c-0.041-0.328,0.194-0.627,0.521-0.667C65.812,0.115,66.111,0.35,66.15,0.677z"/>
	<path fill="#FFFFFF" d="M70.46,25.29c0.041,0.328-0.194,0.627-0.519,0.667c-0.334,0.041-0.632-0.192-0.672-0.523
		c-0.039-0.328,0.194-0.627,0.528-0.667C70.122,24.729,70.42,24.962,70.46,25.29z"/>
	<circle fill="#FFFFFF" cx="70.377" cy="16.966" r="0.598"/>
	<circle fill="#FFFFFF" cx="71.844" cy="25.2" r="0.6"/>
	<path fill="#FFFFFF" d="M72.602,25.114c0.041,0.328-0.194,0.632-0.526,0.672c-0.327,0.039-0.625-0.199-0.665-0.528
		c-0.041-0.328,0.194-0.625,0.521-0.665C72.263,24.552,72.562,24.783,72.602,25.114z"/>
	<path fill="#FFFFFF" d="M73.646,41.715c0.039,0.328-0.194,0.626-0.527,0.667c-0.326,0.04-0.623-0.195-0.664-0.523
		c-0.041-0.329,0.194-0.63,0.52-0.67C73.308,41.148,73.606,41.386,73.646,41.715z"/>
	<path fill="#FFFFFF" d="M72.801,25.106c0.041,0.327-0.195,0.625-0.523,0.665c-0.327,0.041-0.625-0.194-0.666-0.521
		c-0.04-0.331,0.195-0.628,0.521-0.668C72.462,24.541,72.761,24.775,72.801,25.106z"/>
	<circle fill="#FFFFFF" cx="72.576" cy="0.194" r="0.598"/>
	<circle fill="#FFFFFF" cx="73.125" cy="16.812" r="0.6"/>
	<circle fill="#FFFFFF" cx="73.797" cy="25.112" r="0.6"/>
	<circle fill="#FFFFFF" cx="74.554" cy="50.046" r="0.6"/>
	<path fill="#FFFFFF" d="M75.005,8.4c0.041,0.33-0.194,0.629-0.524,0.669c-0.329,0.039-0.626-0.195-0.665-0.524
		c-0.041-0.333,0.192-0.63,0.521-0.669C74.666,7.835,74.965,8.067,75.005,8.4z"/>
	<path fill="#FFFFFF" d="M76.325,25.03c0.04,0.331-0.194,0.628-0.52,0.668c-0.332,0.039-0.634-0.194-0.674-0.524
		c-0.04-0.327,0.198-0.625,0.53-0.665C75.986,24.469,76.285,24.703,76.325,25.03z"/>
	<path fill="#FFFFFF" d="M76.794,25.04c0.041,0.33-0.194,0.629-0.522,0.667c-0.328,0.04-0.627-0.193-0.663-0.523
		c-0.041-0.329,0.194-0.626,0.519-0.665C76.459,24.479,76.758,24.712,76.794,25.04z"/>
	<path fill="#FFFFFF" d="M77.011,16.727c0.041,0.331-0.194,0.628-0.522,0.668c-0.328,0.041-0.627-0.194-0.667-0.524
		c-0.037-0.327,0.195-0.625,0.523-0.665S76.975,16.4,77.011,16.727z"/>
	<circle fill="#FFFFFF" cx="77.11" cy="0.185" r="0.599"/>
	<path fill="#FFFFFF" d="M76.542,49.99c0.036,0.329-0.194,0.625-0.526,0.665c-0.324,0.041-0.627-0.192-0.667-0.521
		c-0.041-0.33,0.198-0.629,0.522-0.667C76.203,49.427,76.501,49.66,76.542,49.99z"/>
	<circle fill="#FFFFFF" cx="78.075" cy="25.195" r="0.599"/>
	<path fill="#FFFFFF" d="M78.22,33.427c0.041,0.328-0.194,0.626-0.522,0.665c-0.328,0.041-0.627-0.193-0.667-0.521
		c-0.039-0.333,0.195-0.632,0.523-0.67C77.882,32.861,78.181,33.094,78.22,33.427z"/>
	<path fill="#FFFFFF" d="M80.098,16.889c0.041,0.327-0.194,0.625-0.522,0.665s-0.631-0.194-0.671-0.521
		c-0.04-0.331,0.198-0.628,0.522-0.668C79.759,16.324,80.058,16.558,80.098,16.889z"/>
	<path fill="#FFFFFF" d="M81.973,0.352c0.036,0.331-0.194,0.632-0.522,0.672c-0.332,0.041-0.631-0.198-0.671-0.528
		c-0.04-0.327,0.194-0.625,0.522-0.665C81.634-0.209,81.933,0.025,81.973,0.352z"/>
	<path fill="#FFFFFF" d="M82.822,8.791c0.04,0.329-0.198,0.629-0.522,0.667c-0.332,0.041-0.631-0.192-0.671-0.523
		c-0.04-0.328,0.194-0.627,0.526-0.667C82.483,8.23,82.782,8.463,82.822,8.791z"/>
	<path fill="#FFFFFF" d="M81.527,25.385c0.039,0.326-0.195,0.625-0.523,0.665s-0.63-0.195-0.666-0.521
		c-0.041-0.333,0.194-0.632,0.522-0.672S81.487,25.052,81.527,25.385z"/>
	<path fill="#FFFFFF" d="M78.602,50.156c0.04,0.329-0.194,0.626-0.519,0.665c-0.328,0.041-0.627-0.193-0.667-0.521
		c-0.04-0.33,0.194-0.632,0.522-0.67C78.263,49.59,78.562,49.827,78.602,50.156z"/>
	<path fill="#FFFFFF" d="M79.978,41.947c0.041,0.329-0.194,0.628-0.525,0.667c-0.325,0.041-0.624-0.195-0.664-0.523
		c-0.039-0.328,0.195-0.627,0.523-0.667C79.64,41.386,79.939,41.619,79.978,41.947z"/>
	<path fill="#FFFFFF" d="M85.925,9.206c0.039,0.327-0.195,0.625-0.523,0.665c-0.328,0.041-0.63-0.195-0.67-0.521
		c-0.037-0.33,0.198-0.629,0.526-0.668C85.586,8.641,85.885,8.876,85.925,9.206z"/>
	<circle fill="#FFFFFF" cx="82.417" cy="34.08" r="0.599"/>
	<path fill="#FFFFFF" d="M80.615,50.485c0.041,0.327-0.19,0.625-0.522,0.666c-0.328,0.04-0.627-0.194-0.667-0.521
		c-0.039-0.331,0.195-0.628,0.523-0.668C80.28,49.92,80.576,50.154,80.615,50.485z"/>
	<circle fill="#FFFFFF" cx="80.147" cy="50.58" r="0.599"/>
	<path fill="#FFFFFF" d="M86.212,26.17c0.039,0.328-0.195,0.627-0.52,0.667c-0.332,0.041-0.631-0.194-0.67-0.522
		c-0.04-0.329,0.194-0.627,0.525-0.667C85.874,25.607,86.172,25.841,86.212,26.17z"/>
	<path fill="#FFFFFF" d="M89.959,9.968c0.037,0.327-0.195,0.625-0.526,0.666c-0.325,0.04-0.624-0.194-0.663-0.521
		c-0.04-0.331,0.194-0.628,0.519-0.668C89.621,9.405,89.919,9.637,89.959,9.968z"/>
	<path fill="#FFFFFF" d="M90.533,10.096c0.041,0.331-0.194,0.628-0.519,0.667c-0.332,0.041-0.631-0.195-0.667-0.523
		c-0.041-0.328,0.19-0.627,0.522-0.667C90.198,9.535,90.497,9.768,90.533,10.096z"/>
	<path fill="#FFFFFF" d="M92.056,10.466c0.039,0.329-0.195,0.627-0.523,0.667c-0.328,0.041-0.627-0.194-0.666-0.522
		c-0.04-0.329,0.194-0.626,0.525-0.667C91.717,9.905,92.016,10.137,92.056,10.466z"/>
	<path fill="#FFFFFF" d="M88.016,26.595c0.04,0.333-0.194,0.632-0.526,0.672c-0.324,0.039-0.627-0.195-0.667-0.528
		c-0.037-0.326,0.194-0.625,0.522-0.665C87.677,26.034,87.976,26.269,88.016,26.595z"/>
	<path fill="#FFFFFF" d="M81.806,50.761c0.039,0.326-0.195,0.625-0.523,0.665s-0.627-0.195-0.666-0.521
		c-0.041-0.333,0.194-0.632,0.522-0.672C81.467,50.194,81.766,50.427,81.806,50.761z"/>
	<circle fill="#FFFFFF" cx="87.743" cy="26.754" r="0.599"/>
	<circle fill="#FFFFFF" cx="81.417" cy="50.885" r="0.599"/>
	<circle fill="#FFFFFF" cx="83.731" cy="42.897" r="0.599"/>
	<path fill="#FFFFFF" d="M93.571,10.87c0.04,0.329-0.194,0.63-0.526,0.67c-0.328,0.04-0.627-0.198-0.667-0.526
		c-0.04-0.328,0.194-0.627,0.522-0.667C93.232,10.307,93.531,10.542,93.571,10.87z"/>
	<path fill="#FFFFFF" d="M97.509,3.363c0.037,0.33-0.198,0.628-0.526,0.667c-0.328,0.041-0.627-0.192-0.667-0.522
		c-0.039-0.332,0.195-0.629,0.523-0.668C97.167,2.798,97.469,3.031,97.509,3.363z"/>
	<path fill="#FFFFFF" d="M90.572,27.328c0.039,0.327-0.195,0.627-0.523,0.666c-0.331,0.04-0.627-0.195-0.666-0.521
		c-0.041-0.331,0.19-0.627,0.522-0.667C90.233,26.767,90.532,26.998,90.572,27.328z"/>
	<path fill="#FFFFFF" d="M95.582,11.472c0.041,0.327-0.194,0.626-0.525,0.665c-0.328,0.041-0.624-0.195-0.664-0.521
		c-0.039-0.33,0.195-0.627,0.52-0.667C95.244,10.909,95.542,11.142,95.582,11.472z"/>
	<path fill="#FFFFFF" d="M93.083,19.404c0.041,0.328-0.194,0.627-0.522,0.667s-0.627-0.195-0.667-0.523
		c-0.039-0.332,0.195-0.63,0.523-0.67S93.044,19.072,93.083,19.404z"/>
	<circle fill="#FFFFFF" cx="97.875" cy="3.735" r="0.599"/>
	<circle fill="#FFFFFF" cx="87.864" cy="35.453" r="0.599"/>
	<path fill="#FFFFFF" d="M96.212,11.671c0.04,0.33-0.194,0.628-0.522,0.668c-0.331,0.041-0.627-0.194-0.667-0.524
		c-0.039-0.326,0.195-0.625,0.523-0.665C95.875,11.11,96.173,11.344,96.212,11.671z"/>
	<path fill="#FFFFFF" d="M86.072,43.35c0.04,0.331-0.194,0.629-0.519,0.668c-0.332,0.039-0.631-0.194-0.671-0.524
		c-0.039-0.326,0.195-0.625,0.526-0.665C85.734,42.788,86.033,43.024,86.072,43.35z"/>
	<path fill="#FFFFFF" d="M102.503,5.085c0.039,0.329-0.198,0.627-0.523,0.667c-0.328,0.039-0.63-0.194-0.67-0.523
		c-0.037-0.329,0.198-0.625,0.526-0.665S102.463,4.757,102.503,5.085z"/>
	<circle fill="#FFFFFF" cx="103.543" cy="5.81" r="0.599"/>
	<circle fill="#FFFFFF" cx="101.811" cy="14.109" r="0.599"/>
	<circle fill="#FFFFFF" cx="99.706" cy="22.288" r="0.599"/>
	<path fill="#FFFFFF" d="M107.363,7.158c0.039,0.325-0.195,0.627-0.523,0.667c-0.328,0.039-0.63-0.198-0.666-0.523
		c-0.041-0.329,0.194-0.625,0.525-0.665C107.024,6.597,107.323,6.83,107.363,7.158z"/>
	<circle fill="#FFFFFF" cx="89.241" cy="44.933" r="0.599"/>
	<circle fill="#FFFFFF" cx="92.915" cy="37.471" r="0.599"/>
	<circle fill="#FFFFFF" cx="86.11" cy="52.656" r="0.599"/>
	<path fill="#FFFFFF" d="M97.824,30.254c0.041,0.328-0.19,0.627-0.519,0.667c-0.332,0.039-0.627-0.194-0.667-0.522
		c-0.041-0.329,0.19-0.627,0.522-0.667C97.489,29.691,97.784,29.926,97.824,30.254z"/>
	<circle fill="#FFFFFF" cx="109.921" cy="8.799" r="0.599"/>
	<path fill="#FFFFFF" d="M99.486,31.117c0.041,0.331-0.194,0.629-0.522,0.668c-0.328,0.039-0.627-0.194-0.667-0.524
		c-0.039-0.326,0.195-0.625,0.523-0.665C99.148,30.556,99.447,30.791,99.486,31.117z"/>
	<path fill="#FFFFFF" d="M87.744,53.134c0.039,0.328-0.195,0.627-0.523,0.667s-0.627-0.195-0.666-0.523
		c-0.04-0.329,0.194-0.63,0.519-0.67C87.405,52.568,87.704,52.805,87.744,53.134z"/>
	<path fill="#FFFFFF" d="M113.592,10.441c0.037,0.328-0.195,0.63-0.526,0.67c-0.325,0.04-0.624-0.198-0.663-0.526
		c-0.04-0.328,0.194-0.627,0.519-0.667C113.253,9.878,113.552,10.113,113.592,10.441z"/>
	<path fill="#FFFFFF" d="M101.242,32.123c0.04,0.328-0.198,0.627-0.522,0.667c-0.332,0.041-0.631-0.194-0.671-0.522
		s0.194-0.627,0.526-0.667C100.899,31.56,101.202,31.795,101.242,32.123z"/>
	<path fill="#FFFFFF" d="M88.415,53.522c0.04,0.328-0.194,0.627-0.522,0.665c-0.328,0.041-0.631-0.192-0.671-0.521
		c-0.037-0.327,0.198-0.632,0.526-0.67C88.076,52.955,88.375,53.195,88.415,53.522z"/>
	<path fill="#FFFFFF" d="M88.746,53.724c0.041,0.329-0.194,0.626-0.522,0.665c-0.328,0.04-0.627-0.192-0.663-0.521
		c-0.041-0.329,0.194-0.627,0.519-0.667C88.411,53.163,88.709,53.395,88.746,53.724z"/>
	<circle fill="#FFFFFF" cx="101.325" cy="32.61" r="0.599"/>
	<circle fill="#FFFFFF" cx="105.723" cy="25.55" r="0.599"/>
	<path fill="#FFFFFF" d="M107.47,26.216c0.041,0.328-0.19,0.627-0.519,0.667c-0.332,0.041-0.627-0.195-0.667-0.523
		c-0.041-0.328,0.19-0.627,0.522-0.667C107.135,25.653,107.43,25.887,107.47,26.216z"/>
	<path fill="#FFFFFF" d="M102.939,33.187c0.041,0.327-0.194,0.625-0.525,0.665c-0.325,0.041-0.624-0.194-0.664-0.521
		c-0.039-0.33,0.195-0.627,0.523-0.665C102.601,32.626,102.9,32.857,102.939,33.187z"/>
	<circle fill="#FFFFFF" cx="111.467" cy="19.352" r="0.599"/>
	<circle fill="#FFFFFF" cx="93.86" cy="47.595" r="0.599"/>
	<circle fill="#FFFFFF" cx="118.89" cy="14.372" r="0.601"/>
	<circle fill="#FFFFFF" cx="99.489" cy="41.392" r="0.599"/>
	<path fill="#FFFFFF" d="M90.548,54.954c0.04,0.33-0.19,0.629-0.519,0.668c-0.332,0.039-0.631-0.194-0.671-0.524
		c-0.037-0.326,0.195-0.625,0.526-0.665C90.21,54.393,90.512,54.628,90.548,54.954z"/>
	<circle fill="#FFFFFF" cx="104.958" cy="35.096" r="0.599"/>
	<circle fill="#FFFFFF" cx="115.27" cy="22.038" r="0.599"/>
	<circle fill="#FFFFFF" cx="121.694" cy="16.502" r="0.599"/>
	<circle fill="#FFFFFF" cx="90.741" cy="55.64" r="0.599"/>
	<circle fill="#FFFFFF" cx="106.678" cy="36.447" r="0.599"/>
	<circle fill="#FFFFFF" cx="111.969" cy="30.027" r="0.599"/>
	<circle fill="#FFFFFF" cx="91.01" cy="55.865" r="0.599"/>
	<path fill="#FFFFFF" d="M103.033,43.679c0.037,0.33-0.198,0.629-0.526,0.667c-0.328,0.04-0.627-0.193-0.667-0.523
		c-0.039-0.327,0.195-0.625,0.526-0.665C102.691,43.117,102.993,43.35,103.033,43.679z"/>
	<path fill="#FFFFFF" d="M97.568,49.949c0.041,0.328-0.197,0.63-0.522,0.67c-0.328,0.039-0.63-0.198-0.667-0.526
		c-0.039-0.328,0.195-0.628,0.523-0.667C97.226,49.386,97.529,49.618,97.568,49.949z"/>
	<path fill="#FFFFFF" d="M114.244,31.393c0.041,0.329-0.194,0.626-0.522,0.665c-0.328,0.041-0.627-0.192-0.667-0.521
		c-0.037-0.33,0.195-0.629,0.523-0.667C113.906,30.83,114.208,31.063,114.244,31.393z"/>
	<circle fill="#FFFFFF" cx="108.278" cy="37.815" r="0.599"/>
	<path fill="#FFFFFF" d="M109.105,37.952c0.039,0.33-0.198,0.627-0.526,0.665c-0.325,0.041-0.627-0.191-0.667-0.521
		c-0.037-0.327,0.198-0.626,0.526-0.665C108.762,37.391,109.065,37.626,109.105,37.952z"/>
	<circle fill="#FFFFFF" cx="108.772" cy="38.266" r="0.599"/>
	<circle fill="#FFFFFF" cx="108.799" cy="38.29" r="0.599"/>
	<path fill="#FFFFFF" d="M121.804,27.059c0.037,0.329-0.195,0.626-0.526,0.667c-0.325,0.041-0.627-0.194-0.663-0.524
		c-0.041-0.327,0.194-0.625,0.519-0.665C121.465,26.498,121.764,26.73,121.804,27.059z"/>
	<path fill="#FFFFFF" d="M128.835,22.315c0.039,0.329-0.195,0.627-0.526,0.667c-0.325,0.041-0.627-0.194-0.667-0.522
		c-0.037-0.328,0.198-0.627,0.522-0.667C128.497,21.752,128.795,21.987,128.835,22.315z"/>
	<path fill="#FFFFFF" d="M111.898,40.693c0.041,0.328-0.194,0.627-0.522,0.667c-0.328,0.041-0.627-0.194-0.667-0.522
		c-0.037-0.328,0.195-0.627,0.523-0.667C111.56,40.13,111.862,40.365,111.898,40.693z"/>
	<path fill="#FFFFFF" d="M125.064,30.439c0.041,0.329-0.194,0.627-0.519,0.665c-0.332,0.041-0.631-0.192-0.671-0.521
		c-0.039-0.33,0.195-0.627,0.526-0.667C124.726,29.878,125.025,30.109,125.064,30.439z"/>
	<circle fill="#FFFFFF" cx="112.874" cy="42.51" r="0.599"/>
	<path fill="#FFFFFF" d="M101.012,53.465c0.036,0.329-0.194,0.625-0.522,0.665s-0.631-0.191-0.671-0.521
		c-0.041-0.329,0.198-0.627,0.526-0.667C100.673,52.903,100.972,53.135,101.012,53.465z"/>
	<path fill="#FFFFFF" d="M114.222,43.343c0.041,0.326-0.194,0.625-0.522,0.665s-0.627-0.195-0.667-0.521
		c-0.039-0.331,0.195-0.632,0.523-0.672C113.884,42.776,114.183,43.013,114.222,43.343z"/>
	<circle fill="#FFFFFF" cx="135.114" cy="30.401" r="0.599"/>
	<path fill="#FFFFFF" d="M136.74,31.756c0.04,0.328-0.194,0.627-0.522,0.666c-0.328,0.04-0.627-0.193-0.667-0.521
		c-0.039-0.331,0.195-0.627,0.523-0.667C136.402,31.195,136.701,31.426,136.74,31.756z"/>
	<circle fill="#FFFFFF" cx="130.239" cy="37.914" r="0.599"/>
	<path fill="#FFFFFF" d="M138.705,34.68c0.039,0.329-0.195,0.626-0.526,0.665c-0.325,0.041-0.624-0.192-0.663-0.521
		c-0.041-0.33,0.194-0.629,0.519-0.667C138.366,34.117,138.665,34.35,138.705,34.68z"/>
	<circle fill="#FFFFFF" cx="117.252" cy="48.453" r="0.599"/>
	<circle fill="#FFFFFF" cx="96.15" cy="61.768" r="0.601"/>
	<circle fill="#FFFFFF" cx="117.313" cy="48.553" r="0.599"/>
	<path fill="#FFFFFF" d="M110.926,52.998c0.04,0.331-0.194,0.629-0.522,0.667c-0.328,0.04-0.631-0.193-0.671-0.523
		c-0.036-0.329,0.194-0.625,0.526-0.665C110.587,52.437,110.886,52.67,110.926,52.998z"/>
	<circle fill="#FFFFFF" cx="103.286" cy="57.494" r="0.599"/>
	<path fill="#FFFFFF" d="M118.093,48.774c0.037,0.329-0.194,0.629-0.526,0.667c-0.324,0.04-0.627-0.194-0.667-0.523
		c-0.039-0.329,0.198-0.627,0.523-0.665C117.754,48.212,118.053,48.445,118.093,48.774z"/>
	<path fill="#FFFFFF" d="M118.285,49.09c0.04,0.328-0.198,0.627-0.526,0.667s-0.627-0.195-0.667-0.523
		c-0.04-0.332,0.194-0.63,0.522-0.67S118.245,48.759,118.285,49.09z"/>
	<circle fill="#FFFFFF" cx="132.716" cy="41.901" r="0.601"/>
	<path fill="#FFFFFF" d="M140.532,37.702c0.04,0.325-0.194,0.627-0.522,0.667c-0.328,0.041-0.627-0.198-0.667-0.524
		c-0.037-0.327,0.195-0.625,0.523-0.665C140.194,37.141,140.493,37.374,140.532,37.702z"/>
	<path fill="#FFFFFF" d="M104.556,58.558c0.04,0.331-0.198,0.629-0.526,0.669c-0.328,0.039-0.627-0.193-0.667-0.524
		c-0.04-0.327,0.194-0.625,0.522-0.666C104.213,57.998,104.516,58.23,104.556,58.558z"/>
	<path fill="#FFFFFF" d="M97.42,62.848c0.04,0.328-0.194,0.626-0.522,0.665c-0.328,0.041-0.627-0.192-0.667-0.521
		c-0.037-0.328,0.195-0.626,0.523-0.667C97.083,62.285,97.381,62.519,97.42,62.848z"/>
	<path fill="#FFFFFF" d="M97.464,62.924c0.037,0.327-0.195,0.626-0.523,0.666c-0.328,0.04-0.63-0.194-0.666-0.521
		c-0.041-0.331,0.19-0.629,0.522-0.669C97.125,62.359,97.424,62.594,97.464,62.924z"/>
	<path fill="#FFFFFF" d="M126.757,47.152c0.037,0.327-0.195,0.625-0.523,0.666c-0.328,0.04-0.63-0.195-0.666-0.521
		c-0.04-0.331,0.194-0.627,0.522-0.667C126.418,46.588,126.717,46.821,126.757,47.152z"/>
	<path fill="#FFFFFF" d="M119.451,51.125c0.041,0.328-0.194,0.627-0.525,0.667c-0.328,0.039-0.624-0.194-0.664-0.522
		c-0.039-0.328,0.191-0.627,0.52-0.667C119.113,50.562,119.412,50.797,119.451,51.125z"/>
	<path fill="#FFFFFF" d="M97.789,63.539c0.041,0.331-0.194,0.627-0.522,0.667c-0.328,0.039-0.627-0.192-0.663-0.523
		c-0.041-0.327,0.19-0.625,0.519-0.666C97.454,62.978,97.752,63.212,97.789,63.539z"/>
	<circle fill="#FFFFFF" cx="127.402" cy="49.639" r="0.601"/>
	<path fill="#FFFFFF" d="M142.994,42.365c0.037,0.33-0.198,0.629-0.526,0.668c-0.324,0.039-0.627-0.194-0.667-0.524
		c-0.039-0.326,0.198-0.625,0.523-0.665C142.652,41.803,142.954,42.038,142.994,42.365z"/>
	<circle fill="#FFFFFF" cx="105.28" cy="61.23" r="0.599"/>
	<circle fill="#FFFFFF" cx="143.157" cy="44.061" r="0.599"/>
	<path fill="#FFFFFF" d="M129.14,52.081c0.041,0.327-0.19,0.628-0.522,0.668c-0.324,0.041-0.627-0.198-0.667-0.524
		c-0.037-0.325,0.198-0.623,0.523-0.664C128.805,51.522,129.104,51.756,129.14,52.081z"/>
	<circle fill="#FFFFFF" cx="120.899" cy="55.424" r="0.599"/>
	<circle fill="#FFFFFF" cx="113.62" cy="59.592" r="0.599"/>
	<circle fill="#FFFFFF" cx="129.403" cy="54.279" r="0.599"/>
	<path fill="#FFFFFF" d="M98.925,66.104c0.041,0.327-0.194,0.625-0.519,0.666c-0.332,0.04-0.631-0.195-0.667-0.521
		c-0.041-0.329,0.194-0.628,0.522-0.668C98.59,65.541,98.889,65.776,98.925,66.104z"/>
	<circle fill="#FFFFFF" cx="121.684" cy="57.381" r="0.599"/>
	<path fill="#FFFFFF" d="M137.957,51.736c0.039,0.331-0.195,0.632-0.523,0.672s-0.627-0.198-0.666-0.528
		c-0.041-0.323,0.194-0.625,0.522-0.665S137.917,51.413,137.957,51.736z"/>
	<circle fill="#FFFFFF" cx="98.576" cy="66.849" r="0.601"/>
	<path fill="#FFFFFF" d="M146.65,51.393c0.039,0.329-0.195,0.626-0.526,0.665c-0.325,0.041-0.627-0.192-0.663-0.521
		c-0.041-0.329,0.194-0.625,0.519-0.665C146.311,50.832,146.61,51.063,146.65,51.393z"/>
	<circle fill="#FFFFFF" cx="138.383" cy="54.769" r="0.599"/>
	<path fill="#FFFFFF" d="M139.858,57.705c0.04,0.327-0.194,0.626-0.522,0.666c-0.328,0.04-0.627-0.195-0.667-0.523
		c-0.037-0.328,0.195-0.63,0.523-0.67C139.52,57.138,139.819,57.376,139.858,57.705z"/>
	<circle fill="#FFFFFF" cx="115.403" cy="65.176" r="0.599"/>
	<path fill="#FFFFFF" d="M99.869,69.185c0.041,0.329-0.197,0.628-0.525,0.668s-0.627-0.194-0.664-0.522
		c-0.039-0.328,0.195-0.627,0.52-0.667C99.531,68.623,99.83,68.857,99.869,69.185z"/>
	<circle fill="#FFFFFF" cx="123.561" cy="63.531" r="0.599"/>
	<path fill="#FFFFFF" d="M148.541,58.163c0.041,0.33-0.19,0.627-0.519,0.667c-0.332,0.04-0.627-0.194-0.667-0.525
		c-0.041-0.326,0.19-0.625,0.522-0.665C148.206,57.599,148.504,57.835,148.541,58.163z"/>
	<circle fill="#FFFFFF" cx="140.002" cy="60.818" r="0.599"/>
	<circle fill="#FFFFFF" cx="140.318" cy="62.349" r="0.601"/>
	<path fill="#FFFFFF" d="M124.582,65.445c0.039,0.327-0.195,0.625-0.523,0.666c-0.328,0.04-0.627-0.194-0.666-0.521
		c-0.041-0.331,0.194-0.628,0.522-0.668C124.243,64.881,124.542,65.114,124.582,65.445z"/>
	<path fill="#FFFFFF" d="M100.084,70.186c0.04,0.328-0.194,0.625-0.522,0.666c-0.332,0.041-0.631-0.193-0.671-0.522
		c-0.037-0.33,0.194-0.628,0.526-0.668C99.742,69.622,100.044,69.855,100.084,70.186z"/>
	<circle fill="#FFFFFF" cx="124.149" cy="66.399" r="0.599"/>
	<circle fill="#FFFFFF" cx="132.344" cy="64.979" r="0.599"/>
	<path fill="#FFFFFF" d="M149.333,62.076c0.037,0.33-0.195,0.628-0.526,0.668c-0.325,0.039-0.627-0.194-0.663-0.525
		c-0.041-0.328,0.194-0.626,0.519-0.665C148.995,61.513,149.293,61.747,149.333,62.076z"/>
	<circle fill="#FFFFFF" cx="140.598" cy="63.89" r="0.599"/>
	<path fill="#FFFFFF" d="M149.666,64.172c0.041,0.327-0.194,0.626-0.519,0.665c-0.332,0.04-0.631-0.193-0.671-0.519
		c-0.037-0.331,0.195-0.629,0.526-0.668C149.328,63.61,149.629,63.843,149.666,64.172z"/>
</g>
</svg>
